# This file uses centimeters as units for non-parametric coordinates.

mtllib Encaixe.mtl
g default
v -162.052658 182.748642 32.646904
v -161.629761 182.748642 32.832268
v -162.073425 182.918777 33.270737
v -162.261871 183.329880 33.447540
v -162.672913 183.323807 33.280823
v -162.843124 183.317917 32.878258
v -162.667892 182.915131 32.674892
v -162.227829 182.748642 32.199406
v 60.885353 182.748642 32.646904
v 61.060520 182.748642 32.199406
v 61.500095 182.918671 32.666763
v 61.675808 183.329880 32.866310
v 61.509094 183.323944 33.277325
v 61.106506 183.317932 33.447540
v 60.914139 182.915222 33.271320
v 60.462452 182.748642 32.832268
v -162.669373 201.263641 32.854195
v -162.843124 200.844177 32.854362
v -162.669373 200.844177 33.273804
v -162.249939 200.844177 33.447540
v -162.249863 201.263641 33.273804
v -162.249939 201.437363 32.854362
v 61.502079 201.263641 32.854275
v 61.082634 201.437363 32.854362
v 61.082466 201.263641 33.273804
v 61.082634 200.844177 33.447540
v 61.502079 200.844177 33.273804
v 61.675808 200.844177 32.854362
v -162.669373 200.844177 12.191091
v -162.843124 200.844177 12.610531
v -162.669373 201.263641 12.610616
v -162.249939 201.437363 12.610531
v -162.249771 201.263641 12.191091
v -162.249939 200.844177 12.017354
v 61.502079 200.844177 12.191091
v 61.082634 200.844177 12.017354
v 61.082546 201.263641 12.191091
v 61.082634 201.437363 12.610531
v 61.502079 201.263641 12.610699
v 61.675808 200.844177 12.610531
v -162.052658 182.748642 12.817984
v -162.227829 182.748642 13.265488
v -162.667404 182.918671 12.798132
v -162.843124 183.329880 12.598583
v -162.676407 183.323944 12.187570
v -162.273819 183.317932 12.017354
v -162.081451 182.915222 12.193570
v -161.629761 182.748642 12.632622
v 60.885353 182.748642 12.817984
v 60.462456 182.748642 12.632622
v 60.906120 182.918777 12.194154
v 61.094570 183.329880 12.017354
v 61.505592 183.323807 12.184071
v 61.675808 183.317917 12.586636
v 61.500599 182.915131 12.790000
v 61.060520 182.748642 13.265488
v -160.721710 183.329865 14.176007
v -160.891861 183.330154 14.587207
v -161.067825 182.918915 14.415663
v -161.490067 182.748642 14.000029
v -161.313126 182.748642 13.576040
v -160.886185 182.748642 13.400452
v -160.478760 182.918716 13.827456
v -160.310928 183.329575 14.005684
v 59.554401 183.329865 14.176007
v 59.143623 183.329575 14.005684
v 59.312325 182.918716 13.829915
v 59.718941 182.748642 13.406044
v 60.150154 182.748642 13.580024
v 60.328655 182.748642 13.999972
v 59.903126 182.918900 14.416544
v 59.724552 183.330154 14.587207
v 59.554401 183.329865 31.288889
v 59.724552 183.330154 30.877686
v 59.900509 182.918915 31.049231
v 60.322754 182.748642 31.464867
v 60.145813 182.748642 31.888855
v 59.718880 182.748642 32.064445
v 59.311451 182.918716 31.637436
v 59.143623 183.329575 31.459209
v -160.721710 183.329865 31.288889
v -160.310928 183.329575 31.459209
v -160.479630 182.918716 31.634977
v -160.886246 182.748642 32.058853
v -161.317444 182.748642 31.884869
v -161.495956 182.748642 31.464920
v -161.070435 182.918900 31.048347
v -160.891861 183.330154 30.877686
v -160.718109 190.526260 14.599072
v -160.891861 190.106812 14.598861
v -160.718109 190.106812 14.179420
v -160.298676 190.106812 14.005684
v -160.298477 190.526260 14.179420
v -160.298676 190.699997 14.598861
v 59.550812 190.526260 14.599072
v 59.131374 190.699997 14.598861
v 59.131153 190.526260 14.179420
v 59.131374 190.106812 14.005684
v 59.550812 190.106812 14.179420
v 59.724552 190.106812 14.598861
v 59.131153 190.526260 31.285473
v 59.131374 190.699997 30.866034
v 59.550812 190.526260 30.865822
v 59.724552 190.106812 30.866034
v 59.550812 190.106812 31.285473
v 59.131374 190.106812 31.459209
v -160.718109 190.526260 30.865822
v -160.298676 190.699997 30.866034
v -160.298477 190.526260 31.285473
v -160.298676 190.106812 31.459209
v -160.718109 190.106812 31.285473
v -160.891861 190.106812 30.866034
v -162.492157 182.917023 33.096077
v 61.327099 182.917053 33.093842
v -162.592270 201.186539 33.196655
v 61.424923 201.186539 33.196682
v -162.592239 201.186539 12.268212
v 61.424953 201.186539 12.268245
v -162.494415 182.917053 12.371050
v 61.324863 182.917023 12.368818
v -160.895401 182.918839 14.000216
v 59.730453 182.918839 14.002434
v 59.728100 182.918839 31.464680
v -160.897751 182.918839 31.462461
v -160.640945 190.449173 14.256590
v 59.473640 190.449173 14.256590
v 59.473640 190.449173 31.208305
v -160.640945 190.449173 31.208305
vt 0.376301 1.000000
vt 0.376200 0.007775
vt 0.368359 0.007615
vt 0.623741 1.000000
vt 0.625000 0.991103
vt 0.631781 0.007775
vt 0.376225 0.242065
vt 0.623775 0.242065
vt 0.631920 0.242065
vt 0.131781 0.007775
vt 0.376225 0.493080
vt 0.623775 0.493080
vt 0.868080 0.242065
vt 0.868359 0.007615
vt 0.376175 0.742384
vt 0.623800 0.742225
vt 0.625000 0.757246
vt 0.375000 0.992885
vt 0.375000 0.758330
vt 0.376238 0.750000
vt 0.623733 0.750000
vt 0.625000 0.757115
vt 0.625000 0.991350
vt 0.623762 1.000000
vt 0.376267 1.000000
vt 0.375000 0.991670
vt 0.375000 0.991503
vt 0.376266 0.750000
vt 0.623734 0.750000
vt 0.625000 0.758497
vt 0.625000 0.991503
vt 0.376266 0.991503
vt 0.623734 1.000000
vt 0.376266 1.000000
vt 0.623824 0.007616
vt 0.376225 0.256920
vt 0.623775 0.256920
vt 0.376225 0.507935
vt 0.623775 0.507935
vt 0.376266 0.758497
vt 0.623734 0.758497
vt 0.623734 0.991503
vt 0.368080 0.242065
vt 0.131920 0.242065
vt 0.376259 0.750000
vt 0.623699 0.750000
vt 0.375000 0.992754
vt 0.375000 0.758897
vt 0.375000 0.758650
vt 0.376239 0.750000
vt 0.623761 0.750000
vt 0.625000 0.758330
vt 0.625000 0.991670
vt 0.623761 1.000000
vt 0.376239 1.000000
vt 0.375000 0.758497
vt 0.375784 0.997445
vt 0.376343 -0.000000
vt 0.376343 1.000000
vt 0.373444 0.007691
vt 0.375000 0.994867
vt 0.369867 -0.000000
vt 0.624353 0.996890
vt 0.630202 -0.000000
vt 0.625000 0.994798
vt 0.626586 0.007693
vt 0.623652 1.000000
vt 0.623652 -0.000000
vt 0.370358 0.250000
vt 0.375000 0.254642
vt 0.373375 0.242073
vt 0.376219 0.251465
vt 0.625000 0.254641
vt 0.629641 0.250000
vt 0.623781 0.251464
vt 0.626619 0.242073
vt 0.125000 0.245294
vt 0.375000 0.504706
vt 0.375000 0.495359
vt 0.129641 0.250000
vt 0.376219 0.498536
vt 0.625000 0.504706
vt 0.875000 0.245294
vt 0.623781 0.498535
vt 0.870359 0.250000
vt 0.625000 0.495358
vt 0.375647 0.753110
vt 0.130202 -0.000000
vt 0.375000 0.755202
vt 0.375000 0.744326
vt 0.125000 0.005674
vt 0.375827 0.747275
vt 0.624216 0.752555
vt 0.624135 0.747242
vt 0.875000 0.005673
vt 0.625000 0.744327
vt 0.625000 0.755133
vt 0.869867 -0.000000
vt 0.375800 0.752906
vt 0.375000 0.761428
vt 0.375572 0.754170
vt 0.376623 0.750000
vt 0.624200 0.752906
vt 0.623361 0.750000
vt 0.624431 0.753516
vt 0.625000 0.760435
vt 0.624200 0.997094
vt 0.625000 0.988571
vt 0.624428 0.995830
vt 0.623377 1.000000
vt 0.375800 0.997094
vt 0.376639 1.000000
vt 0.375569 0.996484
vt 0.375000 0.989565
vt 0.375828 0.758256
vt 0.375818 0.752947
vt 0.376260 0.755055
vt 0.624171 0.758256
vt 0.623740 0.755055
vt 0.624182 0.752947
vt 0.623740 0.994945
vt 0.624172 0.991744
vt 0.624182 0.997053
vt 0.375829 0.991744
vt 0.376260 0.994945
vt 0.375818 0.997053
vt 0.375000 0.000000
vt 0.375000 1.000000
vt 0.625000 0.000000
vt 0.625000 1.000000
vt 0.375000 0.250000
vt 0.625000 0.250000
vt 0.125000 0.250000
vt 0.375000 0.500000
vt 0.625000 0.500000
vt 0.875000 0.250000
vt 0.125000 0.000000
vt 0.375000 0.750000
vt 0.625000 0.750000
vt 0.875000 0.000000
vt 0.375000 0.750000
vt 0.625000 0.750000
vt 0.625000 1.000000
vt 0.375000 1.000000
vt 0.375000 0.750000
vt 0.625000 0.750000
vt 0.625000 1.000000
vt 0.375000 1.000000
vn -0.000102 -0.972696 0.232083
vn -0.093718 -0.991369 0.091677
vn 0.050198 -0.997442 -0.050885
vn 0.000120 -0.997810 -0.066143
vn -0.237744 -0.971327 0.000972
vn 0.066074 -0.997814 -0.001476
vn -0.000775 -0.007403 0.999972
vn -0.000494 -0.398136 0.917326
vn 0.000470 -0.398144 0.917323
vn 0.000771 -0.007321 0.999973
vn -0.000693 -0.933865 0.357626
vn 0.000093 -0.972525 0.232800
vn 0.000702 -0.933883 0.357578
vn -0.999939 -0.007267 0.008351
vn -0.922495 0.000434 0.386008
vn -0.922786 0.006555 0.385258
vn -0.999920 0.009612 0.008242
vn -0.379317 0.000353 0.925267
vn -0.000754 0.009673 0.999953
vn -0.378689 0.006435 0.925502
vn -0.350112 -0.936677 0.007616
vn -0.350648 -0.936477 -0.007517
vn -0.237091 -0.971487 -0.001075
vn -0.917341 -0.398073 0.004983
vn -0.999938 -0.007330 -0.008382
vn -0.917380 -0.397977 -0.005245
vn 0.237089 -0.971487 0.001076
vn 0.096181 -0.991349 0.089308
vn -0.050323 -0.997443 -0.050749
vn -0.066116 -0.997811 -0.001508
vn -0.000118 -0.997807 -0.066190
vn 0.999938 -0.007330 0.008381
vn 0.917390 -0.397954 0.005245
vn 0.917351 -0.398049 -0.004982
vn 0.999939 -0.007267 -0.008350
vn 0.350649 -0.936477 0.007517
vn 0.237742 -0.971328 -0.000973
vn 0.350112 -0.936677 -0.007615
vn 0.385985 0.000433 0.922505
vn 0.385236 0.006554 0.922795
vn 0.000761 0.009668 0.999953
vn 0.925269 0.000353 0.379312
vn 0.999921 0.009613 0.008161
vn 0.925504 0.006435 0.378684
vn -0.924115 0.382079 0.005217
vn -0.924115 0.382079 -0.005219
vn -0.999920 0.009613 -0.008162
vn -0.382069 0.924119 0.005218
vn -0.000771 0.999964 0.008401
vn -0.000771 0.999964 -0.008400
vn -0.382068 0.924120 -0.005219
vn -0.000480 0.923917 0.382592
vn 0.000480 0.923917 0.382592
vn 0.000771 0.999964 0.008400
vn -0.000480 0.382596 0.923915
vn 0.000480 0.382596 0.923915
vn 0.382063 0.924122 0.005219
vn 0.382064 0.924121 -0.005217
vn 0.000771 0.999964 -0.008400
vn 0.924120 0.382067 0.005219
vn 0.999920 0.009611 -0.008242
vn 0.924120 0.382068 -0.005217
vn -0.925492 0.006435 -0.378712
vn -0.925258 0.000353 -0.379340
vn -0.385242 0.006555 -0.922792
vn -0.000761 0.009668 -0.999953
vn -0.000771 -0.007321 -0.999973
vn -0.385992 0.000433 -0.922502
vn -0.000480 0.382596 -0.923916
vn 0.000480 0.382596 -0.923915
vn 0.000754 0.009673 -0.999953
vn -0.000480 0.923917 -0.382593
vn 0.000480 0.923917 -0.382593
vn 0.378691 0.006435 -0.925501
vn 0.379318 0.000353 -0.925266
vn 0.000775 -0.007402 -0.999972
vn 0.922792 0.006554 -0.385242
vn 0.922502 0.000433 -0.385992
vn -0.096182 -0.991349 -0.089315
vn 0.050323 -0.997443 0.050750
vn 0.066115 -0.997811 0.001509
vn -0.000093 -0.972520 -0.232822
vn 0.000118 -0.997807 0.066193
vn -0.000702 -0.933870 -0.357611
vn 0.000692 -0.933852 -0.357659
vn 0.000102 -0.972691 -0.232104
vn -0.000470 -0.398137 -0.917326
vn 0.000494 -0.398129 -0.917329
vn 0.093718 -0.991367 -0.091700
vn -0.050197 -0.997443 0.050866
vn -0.000120 -0.997810 0.066146
vn -0.066075 -0.997814 0.001477
vn 0.999488 -0.030349 0.010113
vn 0.923330 -0.036007 0.382316
vn 0.924526 -0.015928 0.380787
vn 0.999663 -0.023914 0.010078
vn 0.382593 -0.036042 0.923214
vn 0.000768 -0.029898 0.999553
vn 0.000765 -0.024087 0.999710
vn 0.381086 -0.015941 0.924402
vn 0.371086 -0.928596 0.002045
vn 0.371047 -0.928612 -0.001881
vn 0.916234 -0.400416 0.013523
vn 0.999489 -0.030321 -0.010105
vn 0.916190 -0.400523 -0.013332
vn 0.001029 -0.395994 0.918252
vn -0.001043 -0.395987 0.918256
vn -0.000768 -0.029933 0.999552
vn 0.000149 -0.928607 0.371064
vn -0.000161 -0.928606 0.371067
vn -0.382543 -0.035957 0.923238
vn -0.381087 -0.015941 0.924402
vn -0.000765 -0.024086 0.999710
vn -0.923310 -0.036123 0.382353
vn -0.999489 -0.030322 0.010104
vn -0.999663 -0.023911 0.010078
vn -0.924530 -0.015927 0.380776
vn -0.916184 -0.400535 0.013332
vn -0.916227 -0.400431 -0.013523
vn -0.999488 -0.030351 -0.010112
vn -0.371061 -0.928607 0.001881
vn -0.371100 -0.928591 -0.002046
vn -0.923334 -0.036008 -0.382306
vn -0.924530 -0.015927 -0.380776
vn -0.999663 -0.023911 -0.010078
vn -0.382590 -0.036042 -0.923215
vn -0.000768 -0.029898 -0.999553
vn -0.000765 -0.024086 -0.999710
vn -0.381085 -0.015941 -0.924403
vn -0.001029 -0.395992 -0.918253
vn 0.001043 -0.395985 -0.918256
vn 0.000768 -0.029933 -0.999552
vn -0.000149 -0.928609 -0.371060
vn 0.000161 -0.928608 -0.371063
vn 0.382540 -0.035956 -0.923239
vn 0.381084 -0.015940 -0.924403
vn 0.000765 -0.024087 -0.999710
vn 0.923306 -0.036124 -0.382363
vn 0.999663 -0.023914 -0.010078
vn 0.924526 -0.015927 -0.380787
vn 0.924138 -0.382004 0.006470
vn 0.924138 -0.382004 -0.006470
vn 0.381965 -0.924154 0.006469
vn 0.000783 -0.999946 0.010402
vn 0.000783 -0.999946 -0.010402
vn 0.381965 -0.924154 -0.006469
vn 0.000488 -0.923896 0.382644
vn -0.000488 -0.923896 0.382644
vn -0.000783 -0.999946 0.010402
vn 0.000488 -0.382622 0.923905
vn -0.000488 -0.382622 0.923905
vn -0.381956 -0.924158 0.006470
vn -0.381956 -0.924158 -0.006470
vn -0.000783 -0.999946 -0.010402
vn -0.924155 -0.381963 0.006470
vn -0.924155 -0.381963 -0.006469
vn -0.000488 -0.923896 -0.382645
vn 0.000488 -0.923896 -0.382645
vn -0.000488 -0.382622 -0.923905
vn 0.000488 -0.382622 -0.923905
vn -0.182958 -0.965996 0.182699
vn -0.325175 -0.501257 0.801875
vn -0.325175 -0.501257 0.801875
vn -0.791498 -0.509712 0.337231
vn -0.791498 -0.509712 0.337231
vn 0.187719 -0.965968 0.177952
vn 0.803313 -0.501587 0.321090
vn 0.803313 -0.501587 0.321090
vn 0.341708 -0.509018 0.790023
vn 0.341708 -0.509018 0.790023
vn -0.325331 0.887900 0.325259
vn -0.887879 0.325400 0.325247
vn -0.325315 0.325345 0.887874
vn 0.887876 0.325353 0.325303
vn 0.325269 0.887896 0.325332
vn 0.325265 0.325389 0.887876
vn -0.325258 0.325364 -0.887888
vn -0.887862 0.325397 -0.325297
vn -0.325266 0.887903 -0.325317
vn 0.887882 0.325382 -0.325258
vn 0.325322 0.325378 -0.887860
vn 0.325335 0.887898 -0.325262
vn -0.187723 -0.965965 -0.177967
vn -0.803305 -0.501594 -0.321098
vn -0.803305 -0.501594 -0.321098
vn -0.341721 -0.509024 -0.790014
vn -0.341721 -0.509024 -0.790014
vn 0.182957 -0.965995 -0.182705
vn 0.325178 -0.501243 -0.801882
vn 0.325178 -0.501243 -0.801882
vn 0.791524 -0.509674 -0.337227
vn 0.791524 -0.509674 -0.337227
vn 0.334411 -0.486610 0.807082
vn 0.807826 -0.484973 0.334990
vn 0.194214 -0.961472 0.194559
vn -0.806057 -0.487879 0.335032
vn -0.334262 -0.483968 0.808730
vn -0.192718 -0.961480 0.196002
vn -0.334397 -0.486596 -0.807095
vn -0.807812 -0.485008 -0.334974
vn -0.194217 -0.961473 -0.194551
vn 0.806047 -0.487898 -0.335027
vn 0.334264 -0.483963 -0.808732
vn 0.192724 -0.961484 -0.195975
vn 0.325339 -0.887888 0.325282
vn 0.887838 -0.325456 0.325303
vn 0.325298 -0.325440 0.887846
vn -0.887844 -0.325455 0.325287
vn -0.325320 -0.887872 0.325346
vn -0.325291 -0.325454 0.887843
vn -0.325291 -0.325453 -0.887843
vn -0.325321 -0.887866 -0.325362
vn -0.887843 -0.325459 -0.325288
vn 0.887839 -0.325452 -0.325304
vn 0.325328 -0.887891 -0.325287
vn 0.325295 -0.325428 -0.887851
s 1
g pCube1
usemtl initialShadingGroup
f 2/1/1 1/57/2 85/113/3 84/25/4
f 1/57/2 8/47/5 86/18/6 85/113/3
s 2
f 4/2/7 3/58/8 15/68/9 14/35/10
s 1
f 3/59/11 2/1/1 16/4/12 15/67/13
s 3
f 6/3/14 5/60/15 19/71/16 18/43/17
s 2
f 5/60/18 4/2/7 20/7/19 19/71/20
s 1
f 8/47/5 7/61/21 43/89/22 42/48/23
s 3
f 7/62/24 6/3/14 44/10/25 43/88/26
s 1
f 10/5/27 9/63/28 77/109/29 76/23/30
f 9/63/28 16/4/12 78/24/31 77/109/29
s 6
f 12/6/32 11/64/33 55/98/34 54/14/35
s 1
f 11/65/36 10/5/27 56/17/37 55/97/38
s 2
f 14/35/10 13/66/39 27/76/40 26/8/41
s 6
f 13/66/42 12/6/32 28/9/43 27/76/44
s 3
f 18/43/17 17/69/45 31/80/46 30/44/47
s 8
f 17/70/48 22/36/49 32/11/50 31/79/51
f 22/36/49 21/72/52 25/75/53 24/37/54
s 2
f 21/72/55 20/7/19 26/8/41 25/75/56
s 8
f 24/37/54 23/73/57 39/86/58 38/12/59
s 6
f 23/74/60 28/9/43 40/13/61 39/85/62
s 3
f 30/44/47 29/77/63 45/91/64 44/10/25
s 9
f 29/78/65 34/38/66 46/15/67 45/90/68
f 34/38/66 33/81/69 37/84/70 36/39/71
s 8
f 33/81/72 32/11/50 38/12/59 37/84/73
s 9
f 36/39/71 35/82/74 53/96/75 52/16/76
s 6
f 35/83/77 40/13/61 54/14/35 53/95/78
s 1
f 42/48/23 41/87/79 61/101/80 60/49/81
f 41/87/79 48/45/82 62/20/83 61/101/80
f 48/45/82 47/92/84 51/94/85 50/46/86
s 9
f 47/92/87 46/15/67 52/16/76 51/94/88
s 1
f 50/46/86 49/93/89 69/105/90 68/21/91
f 49/93/89 56/17/37 70/22/92 69/105/90
s 11
f 58/19/93 57/99/94 91/116/95 90/56/96
s 12
f 57/99/97 64/50/98 92/28/99 91/116/100
s 1
f 60/49/81 59/100/101 87/114/102 86/18/6
s 11
f 59/100/103 58/19/93 88/26/104 87/114/105
s 12
f 64/50/98 63/102/106 67/104/107 66/51/108
s 1
f 63/102/109 62/20/83 68/21/91 67/104/110
s 12
f 66/51/108 65/103/111 99/120/112 98/29/113
s 13
f 65/103/114 72/52/115 100/30/116 99/120/117
f 72/52/115 71/106/118 75/108/119 74/53/120
s 1
f 71/106/121 70/22/92 76/23/30 75/108/122
s 13
f 74/53/120 73/107/123 105/123/124 104/31/125
s 14
f 73/107/126 80/54/127 106/33/128 105/123/129
f 80/54/127 79/110/130 83/112/131 82/55/132
s 1
f 79/110/133 78/24/31 84/25/4 83/112/134
s 14
f 82/55/132 81/111/135 111/126/136 110/34/137
s 11
f 81/111/138 88/26/104 112/27/139 111/126/140
f 90/56/96 89/115/141 107/124/142 112/27/139
s 15
f 89/115/143 94/40/144 108/32/145 107/124/146
f 94/40/144 93/117/147 97/119/148 96/41/149
s 12
f 93/117/150 92/28/99 98/29/113 97/119/151
s 15
f 96/41/149 95/118/152 103/122/153 102/42/154
s 13
f 95/118/155 100/30/116 104/31/125 103/122/156
s 15
f 102/42/154 101/121/157 109/125/158 108/32/145
s 14
f 101/121/159 106/33/128 110/34/137 109/125/160
s 2
f 4/2/7 14/35/10 26/8/41 20/7/19
s 8
f 22/36/49 24/37/54 38/12/59 32/11/50
s 9
f 34/38/66 36/39/71 52/16/76 46/15/67
s 15
f 94/40/144 96/41/149 102/42/154 108/32/145
s 6
f 12/6/32 54/14/35 40/13/61 28/9/43
s 3
f 44/10/25 6/3/14 18/43/17 30/44/47
s 1
f 48/45/82 50/46/86 68/21/91 62/20/83
f 56/17/37 10/5/27 76/23/30 70/22/92
f 16/4/12 2/1/1 84/25/4 78/24/31
f 8/47/5 42/48/23 60/49/81 86/18/6
s 12
f 64/50/98 66/51/108 98/29/113 92/28/99
s 13
f 72/52/115 74/53/120 104/31/125 100/30/116
s 14
f 80/54/127 82/55/132 110/34/137 106/33/128
s 11
f 88/26/104 58/19/93 90/56/96 112/27/139
s 1
f 7/61/21 8/47/5 1/57/2 113/128/161
f 1/57/2 2/1/1 3/59/11 113/128/161
s 2
f 3/58/8 4/2/7 5/60/162 113/127/163
s 3
f 5/60/164 6/3/14 7/62/24 113/127/165
s 1
f 15/67/13 16/4/12 9/63/28 114/130/166
f 9/63/28 10/5/27 11/65/36 114/130/166
s 6
f 11/64/33 12/6/32 13/66/167 114/129/168
s 2
f 13/66/169 14/35/10 15/68/9 114/129/170
s 8
f 21/72/52 22/36/49 17/70/48 115/131/171
s 3
f 17/69/45 18/43/17 19/71/16 115/131/172
s 2
f 19/71/20 20/7/19 21/72/55 115/131/173
s 6
f 27/76/44 28/9/43 23/74/60 116/132/174
s 8
f 23/73/57 24/37/54 25/75/53 116/132/175
s 2
f 25/75/56 26/8/41 27/76/40 116/132/176
s 9
f 33/81/69 34/38/66 29/78/65 117/134/177
s 3
f 29/77/63 30/44/47 31/80/46 117/133/178
s 8
f 31/79/51 32/11/50 33/81/72 117/134/179
s 6
f 39/85/62 40/13/61 35/83/77 118/136/180
s 9
f 35/82/74 36/39/71 37/84/70 118/135/181
s 8
f 37/84/73 38/12/59 39/86/58 118/135/182
s 1
f 47/92/84 48/45/82 41/87/79 119/138/183
f 41/87/79 42/48/23 43/89/22 119/138/183
s 3
f 43/88/26 44/10/25 45/91/184 119/137/185
s 9
f 45/90/186 46/15/67 47/92/87 119/138/187
s 1
f 55/97/38 56/17/37 49/93/89 120/139/188
f 49/93/89 50/46/86 51/94/85 120/139/188
s 9
f 51/94/88 52/16/76 53/96/189 120/139/190
s 6
f 53/95/191 54/14/35 55/98/34 120/140/192
s 12
f 63/102/106 64/50/98 57/99/97 121/141/193
s 11
f 57/99/94 58/19/93 59/100/103 121/141/194
s 1
f 59/100/101 60/49/81 61/101/80 121/141/195
f 61/101/80 62/20/83 63/102/109 121/141/195
s 13
f 71/106/118 72/52/115 65/103/114 122/142/196
s 12
f 65/103/111 66/51/108 67/104/107 122/142/197
s 1
f 67/104/110 68/21/91 69/105/90 122/142/198
f 69/105/90 70/22/92 71/106/121 122/142/198
s 14
f 79/110/130 80/54/127 73/107/126 123/143/199
s 13
f 73/107/123 74/53/120 75/108/119 123/143/200
s 1
f 75/108/122 76/23/30 77/109/29 123/143/201
f 77/109/29 78/24/31 79/110/133 123/143/201
s 11
f 87/114/105 88/26/104 81/111/138 124/144/202
s 14
f 81/111/135 82/55/132 83/112/131 124/144/203
s 1
f 83/112/134 84/25/4 85/113/3 124/144/204
f 85/113/3 86/18/6 87/114/102 124/144/204
s 15
f 93/117/147 94/40/144 89/115/143 125/145/205
s 11
f 89/115/141 90/56/96 91/116/95 125/145/206
s 12
f 91/116/100 92/28/99 93/117/150 125/145/207
s 13
f 99/120/117 100/30/116 95/118/155 126/146/208
s 15
f 95/118/152 96/41/149 97/119/148 126/146/209
s 12
f 97/119/151 98/29/113 99/120/112 126/146/210
s 14
f 105/123/129 106/33/128 101/121/159 127/147/211
s 15
f 101/121/157 102/42/154 103/122/153 127/147/212
s 13
f 103/122/156 104/31/125 105/123/124 127/147/213
s 11
f 111/126/140 112/27/139 107/124/142 128/148/214
s 15
f 107/124/146 108/32/145 109/125/158 128/148/215
s 14
f 109/125/160 110/34/137 111/126/136 128/148/216
