# This file uses centimeters as units for non-parametric coordinates.

mtllib Prendedor.mtl
g default
v 62.414185 110.341003 11.249508
v 60.650890 108.719002 11.501301
v 62.434872 108.973228 10.805209
v 60.322174 110.275261 16.940565
v 60.304672 111.568069 16.954397
v 59.170776 111.709778 17.670750
v 59.657654 109.529984 11.660106
v 61.154400 110.837769 11.979982
v 55.659290 107.754448 11.985486
v 57.757996 108.780106 12.323664
v 55.221172 108.824417 12.257021
v 36.809177 101.707695 12.819089
v 36.307323 102.789986 12.812345
v 35.841385 101.697769 14.900041
v 58.710743 108.720581 11.173409
v 56.953461 107.701492 11.512378
v 54.905659 106.728653 11.388558
v 53.221416 107.611572 11.915832
v 58.064919 110.728561 10.720083
v 59.226463 110.820747 11.410336
v 59.507320 112.037857 11.084018
v 48.978123 105.996300 11.091735
v 48.517014 104.166725 10.506522
v 50.658688 104.989418 10.826781
v 59.755657 110.498245 12.527992
v 61.113609 109.664513 16.662046
v 62.191177 109.130325 17.121090
v 60.296535 108.602531 16.941530
v 51.413860 106.098610 11.250336
v 50.953659 107.177200 11.505617
v 52.789806 105.862190 11.090937
v 47.149204 107.817398 10.459914
v 44.979183 107.041214 10.282925
v 46.563591 105.954216 10.753989
v 49.348934 108.528519 10.558552
v 50.602432 108.266762 11.137014
v 51.576008 109.147499 10.641376
v 53.791237 109.755943 10.770821
v 54.938457 109.756783 11.582533
v 55.985950 110.229027 10.838850
v 45.000168 103.670609 10.281660
v 47.645805 105.121475 10.763454
v 38.616051 101.459702 11.143114
v 37.203793 100.593086 12.751119
v 44.204475 102.543060 9.996132
v 46.369026 103.357559 10.208958
v 36.256817 100.402092 14.840235
v 35.824856 101.194160 17.130518
v 36.175365 100.068214 17.120550
v 39.853378 104.281059 10.497459
v 40.620861 105.423019 10.209215
v 38.475887 104.572227 10.688833
v 42.566437 103.603310 10.272925
v 42.022625 101.726143 9.970866
v 39.868423 100.894203 10.433353
v 37.916965 100.154442 11.608804
v 44.567394 104.782852 10.447877
v 42.076920 104.887077 10.302188
v 42.798409 106.253334 10.198401
v 36.094940 99.310341 15.928470
v 36.713223 99.575607 13.608946
v 60.939926 110.838531 16.139591
v 62.270565 111.336563 16.823174
v 61.867867 111.614021 10.860036
v 61.053516 112.419762 9.989924
v 57.303963 110.020828 12.373686
v 52.804176 108.853600 11.541854
v 48.520111 107.278137 10.942811
v 44.151539 105.909576 10.381028
v 40.695496 102.040314 10.325961
v 36.534904 103.693352 11.745782
v 38.182499 102.739639 11.292037
v 35.261593 103.134605 13.717004
v 34.626266 102.748154 16.007948
v 62.560444 110.201103 17.821964
v 36.721935 101.076042 19.235212
v 40.321106 101.618568 22.016233
v 41.653923 101.293716 22.373684
v 39.481091 100.509521 21.766577
v 36.517498 99.369324 18.310591
v 37.906406 102.380028 20.841131
v 37.768448 101.099815 20.445545
v 46.022121 102.916466 21.786354
v 43.866291 102.092728 22.186201
v 44.646061 103.219444 21.823156
v 42.223915 103.157059 22.047699
v 50.209465 104.518036 20.542423
v 50.572964 106.330231 19.839659
v 52.279190 105.326332 19.868437
v 43.805885 105.461906 21.864456
v 42.482445 105.789787 22.243694
v 44.635815 106.600639 21.829319
v 39.509045 103.829483 21.913305
v 38.110394 104.068604 21.791265
v 40.280365 104.924461 22.370594
v 46.664906 104.232376 21.268034
v 48.133842 103.732048 21.237892
v 35.259472 102.228645 17.174129
v 34.994610 102.866142 18.418539
v 39.970135 102.741714 21.789518
v 54.355545 106.187027 19.242376
v 52.963680 106.418655 19.299429
v 48.856598 108.171532 20.686558
v 48.018955 107.043816 20.780790
v 46.774403 107.382156 21.350691
v 58.389553 107.921219 17.755415
v 56.407139 107.070457 18.570993
v 57.053532 108.204582 18.032133
v 52.108753 108.622185 19.294998
v 50.934437 108.946480 20.001997
v 53.037628 109.680176 19.327810
v 48.838608 104.816589 20.677650
v 54.641613 107.907402 18.315145
v 52.471264 107.495049 19.107901
v 63.665462 111.013329 17.387676
v 56.195305 110.133606 17.726713
v 55.136257 110.375801 18.626093
v 57.219856 110.979935 18.037214
v 63.969025 109.637306 17.676580
v 59.008652 109.290283 17.310104
v 48.377514 105.918968 20.556686
v 36.142841 102.303665 19.303846
v 36.261223 103.368729 20.429438
v 41.739201 104.438667 22.108248
v 46.167229 105.508049 21.219790
v 40.297401 103.163025 10.474563
v 50.129574 107.618591 19.991238
v 54.181377 109.182114 18.401417
v 58.457947 110.222534 16.594246
v 61.504059 109.260513 18.081625
v 37.677452 99.803154 20.364103
v 44.208595 104.336754 21.729977
v 56.496277 109.042847 17.392363
vt -280.122620 -21.572689
vt -260.803894 -21.572689
vt -280.122620 -7.190890
vt 241.485077 21.572689
vt 251.144470 12.948890
vt 260.803864 21.572689
vt -266.525757 0.000000
vt -251.144470 -12.948900
vt -212.506866 -0.000000
vt -231.825653 -10.440210
vt -212.506866 -12.948890
vt -19.318840 4.298740
vt -38.637600 12.948870
vt -38.637569 -0.000010
vt -241.485046 -21.572689
vt -202.847473 -21.572689
vt -222.166260 -21.572689
vt -193.188034 -4.298690
vt -260.803894 21.572689
vt -251.144470 12.948900
vt -241.485046 21.572689
vt -164.209824 -21.572689
vt -144.891052 -21.572689
vt -154.550446 -4.298700
vt -251.144470 0.000000
vt 241.485077 -21.572689
vt 260.803894 -21.572689
vt 251.144485 -12.948900
vt -173.869232 0.000000
vt -173.869232 -12.948890
vt -183.528625 -21.572689
vt -135.231613 4.298720
vt -125.572166 21.572689
vt -144.891052 21.572689
vt -183.528656 21.572689
vt -173.869263 12.948890
vt -164.209824 21.572689
vt -222.166260 21.572689
vt -212.506897 12.948880
vt -202.847504 21.572689
vt -141.243805 -8.195490
vt -115.912842 -12.948900
vt -38.637569 -12.948900
vt -57.956390 -10.440200
vt -125.572227 -21.572689
vt -106.253410 -21.572689
vt 0.000000 -12.948890
vt 0.000000 0.000000
vt -19.318781 -10.440190
vt -67.615753 21.572689
vt -86.934631 21.572689
vt -77.275200 12.948910
vt -86.934601 -21.572689
vt -96.593987 -4.298680
vt -48.296989 -21.572689
vt -67.615784 -21.572689
vt -115.912842 -0.000010
vt -106.253410 21.572689
vt -96.594017 10.440220
vt -28.978180 -21.572689
vt -9.659390 -21.572689
vt 266.525787 0.000000
vt 251.144485 -0.000000
vt -280.122620 21.572689
vt -280.122620 7.190890
vt -231.825653 4.298700
vt -193.188080 10.440230
vt -154.550446 10.440210
vt -115.912781 12.948870
vt -77.275200 -12.948890
vt -57.956360 4.298710
vt -48.296959 21.572689
vt -28.978239 21.572689
vt -9.659420 21.572689
vt 280.122681 7.190920
vt 19.318781 -4.298680
vt 48.297020 -21.572689
vt 67.615807 -21.572689
vt 57.956421 -12.948890
vt 9.659400 -21.572689
vt 32.625408 -8.195500
vt 38.637600 4.298690
vt 96.594040 -12.948890
vt 86.934631 -21.572689
vt 106.253441 -21.572689
vt 77.275223 -4.298700
vt 164.209854 -21.572689
vt 154.550446 -4.298690
vt 144.891037 -21.572689
vt 106.253441 21.572689
vt 86.934601 21.572689
vt 96.594017 12.948900
vt 67.615837 21.572689
vt 48.297020 21.572689
vt 57.956429 12.948890
vt 125.572227 -21.572689
vt 115.912842 -10.440210
vt 9.659400 21.572689
vt 0.000000 12.948900
vt 57.956421 0.000000
vt 173.869263 -12.948900
vt 183.528687 -21.572689
vt 125.572250 21.572689
vt 135.231613 12.948880
vt 144.891006 21.572689
vt 212.506866 -12.948900
vt 202.847443 -21.572689
vt 222.166290 -21.572689
vt 183.528687 21.572689
vt 164.209824 21.572689
vt 173.869263 12.948900
vt 135.231613 -12.948890
vt 173.869263 0.000000
vt 193.188065 -4.298690
vt 280.122681 -7.190920
vt 222.166290 21.572689
vt 202.847443 21.572689
vt 212.506866 12.948900
vt 280.122681 -21.572689
vt 231.825684 -10.440220
vt 135.231613 -0.000000
vt 19.318781 10.440220
vt 28.978180 21.572689
vt 77.275223 10.440210
vt 115.912842 4.298710
vt -77.275200 0.000000
vt 154.550415 10.440230
vt 193.188065 10.440220
vt 231.825684 4.298690
vt 280.122681 21.572689
vt 28.978180 -21.572689
vt 96.594040 0.000000
vt 212.506866 0.000000
vn -0.383328 0.280096 -0.880117
vn -0.165425 0.282614 -0.944862
vn -0.462698 0.107029 -0.880032
vn 0.307020 -0.736709 0.602493
vn 0.054867 -0.997580 0.042712
vn 0.037699 -0.310987 -0.949666
vn -0.276633 -0.255805 -0.926304
vn -0.228507 0.524851 -0.819949
vn 0.166141 -0.124145 -0.978256
vn -0.202741 0.414566 -0.887148
vn -0.070424 0.435199 -0.897576
vn -0.846423 -0.461181 -0.266232
vn -0.666873 -0.480764 -0.569338
vn -0.767905 -0.280971 -0.575654
vn -0.383945 0.736489 -0.556929
vn -0.053757 0.495224 -0.867101
vn -0.311216 0.696526 -0.646527
vn 0.110998 0.137960 -0.984198
vn 0.084360 -0.585831 -0.806031
vn 0.299830 -0.728385 -0.616082
vn 0.274520 -0.883686 -0.379128
vn 0.029144 0.323082 -0.945922
vn 0.030552 0.291222 -0.956168
vn 0.110425 0.137827 -0.984282
vn -0.177288 -0.283128 -0.942554
vn 0.222188 0.131581 0.966084
vn -0.312934 0.175884 0.933347
vn -0.094279 0.305129 0.947633
vn 0.167712 0.000242 -0.985836
vn 0.031138 0.330986 -0.943122
vn -0.040162 0.427737 -0.903011
vn 0.142658 -0.034079 -0.989185
vn 0.144972 -0.192532 -0.970523
vn 0.196693 -0.246374 -0.949006
vn 0.274080 -0.711304 -0.647245
vn 0.240532 -0.421250 -0.874467
vn 0.247485 -0.471156 -0.846619
vn 0.206117 -0.930801 -0.301869
vn 0.270972 -0.745325 -0.609151
vn 0.300094 -0.820465 -0.486601
vn 0.076343 0.216671 -0.973255
vn 0.022794 0.205883 -0.978311
vn -0.828765 -0.105570 -0.549549
vn -0.543420 -0.025204 -0.839083
vn 0.016125 0.282137 -0.959239
vn -0.022041 0.218582 -0.975570
vn -0.972910 -0.176192 0.149677
vn -0.912922 -0.385161 0.134998
vn -0.950780 -0.182554 -0.250383
vn -0.262106 -0.245752 -0.933224
vn -0.032330 -0.179579 -0.983212
vn -0.173438 -0.134254 -0.975651
vn -0.151075 0.182768 -0.971480
vn -0.044482 0.107184 -0.993244
vn -0.746197 0.118002 -0.655184
vn -0.408383 0.129442 -0.903586
vn 0.064875 0.075846 -0.995007
vn 0.081181 -0.122941 -0.989088
vn 0.005519 -0.047378 -0.998862
vn -0.919753 0.022991 -0.391823
vn -0.998518 0.020060 -0.050598
vn -0.340493 -0.889231 0.305504
vn -0.034672 -0.111409 0.993170
vn -0.197598 -0.804538 -0.560066
vn -0.297859 -0.707200 -0.641208
vn 0.172202 -0.539857 -0.823954
vn 0.271250 -0.478099 -0.835371
vn 0.200796 -0.206510 -0.957619
vn 0.108476 -0.093949 -0.989650
vn -0.256480 0.097894 -0.961579
vn -0.464388 -0.203527 -0.861928
vn -0.493796 -0.458771 -0.738711
vn -0.683459 -0.596176 -0.421259
vn -0.723711 -0.683078 -0.098222
vn 0.253541 -0.588375 -0.767809
vn -0.821491 -0.244780 0.515011
vn -0.529173 0.155489 0.834146
vn -0.122062 0.177055 0.976603
vn -0.322965 0.084092 0.942667
vn -0.929665 -0.102652 0.353816
vn -0.641953 -0.065451 0.763945
vn -0.478443 -0.320277 0.817628
vn 0.114019 0.204307 0.972244
vn 0.059974 0.219571 0.973751
vn 0.101429 0.308764 0.945715
vn 0.004415 0.086040 0.996282
vn 0.175889 0.350095 0.920053
vn 0.258782 0.173792 0.950173
vn 0.168823 0.331273 0.928309
vn 0.262312 -0.156722 0.952172
vn 0.197874 -0.191375 0.961364
vn 0.223249 -0.106053 0.968975
vn 0.027995 -0.329178 0.943853
vn -0.267122 -0.428225 0.863290
vn -0.152165 -0.291665 0.944340
vn 0.145188 0.357500 0.922558
vn 0.181322 0.214059 0.959844
vn -0.645392 -0.690946 0.325674
vn -0.786706 -0.601698 0.138033
vn -0.251207 -0.042319 0.967008
vn 0.181409 0.351130 0.918585
vn 0.102966 0.452405 0.885849
vn 0.329505 -0.173161 0.928139
vn 0.354917 -0.138318 0.924609
vn 0.385966 -0.219458 0.896029
vn 0.089485 0.466583 0.879939
vn 0.094763 0.412507 0.906012
vn 0.269836 0.202191 0.941439
vn 0.435061 -0.429490 0.791366
vn 0.418904 -0.282044 0.863117
vn 0.402406 -0.183756 0.896830
vn 0.199399 0.280394 0.938946
vn 0.314837 0.116371 0.941985
vn 0.229317 0.287854 0.929814
vn -0.383560 -0.105816 0.917434
vn 0.362278 -0.665070 0.653021
vn 0.448958 -0.538244 0.713253
vn 0.417915 -0.418894 0.806148
vn -0.328030 0.124250 0.936461
vn 0.126127 0.429487 0.894222
vn 0.288642 0.063216 0.955348
vn -0.687892 -0.492766 0.532904
vn -0.519865 -0.515527 0.681155
vn 0.070579 -0.123652 0.989812
vn 0.261799 -0.018843 0.964939
vn -0.224425 -0.010158 -0.974438
vn 0.364862 -0.104450 0.925184
vn 0.414932 -0.180742 0.891720
vn 0.235263 -0.025823 0.971589
vn 0.291615 -0.544595 -0.786370
vn -0.745102 -0.069088 0.663362
vn 0.173342 0.049780 0.983603
vn 0.226540 0.267934 0.936425
s 1
g Prendedor:ZBrush_defualt_group group1
usemtl initialShadingGroup
f 3/1/1 2/2/2 1/3/3
f 6/4/4 5/5/5 4/6/6
f 8/7/7 2/2/2 7/8/8
f 11/9/9 10/10/10 9/11/11
f 14/12/12 13/13/13 12/14/14
f 15/15/15 7/8/8 2/2/2
f 17/16/16 9/11/11 16/17/17
f 10/10/10 15/15/15 16/17/17
f 11/9/9 9/11/11 18/18/18
f 2/2/2 8/7/7 1/3/3
f 21/19/19 20/20/20 19/21/21
f 24/22/22 23/23/23 22/24/24
f 8/7/7 25/25/25 20/20/20
f 28/26/26 27/27/27 26/28/28
f 22/24/24 30/29/29 29/30/30
f 17/16/16 31/31/31 18/18/18
f 34/32/32 33/33/33 32/34/34
f 37/35/35 36/36/36 35/37/37
f 40/38/38 39/39/39 38/40/40
f 42/41/41 41/42/42 34/32/32
f 44/43/43 12/14/14 43/44/44
f 46/45/45 45/46/46 41/42/42
f 49/47/47 48/48/48 47/49/49
f 52/50/50 51/51/51 50/52/52
f 54/53/53 53/54/54 45/46/46
f 56/55/55 43/44/44 55/56/56
f 31/31/31 24/22/22 29/30/30
f 57/57/57 41/42/42 53/54/54
f 51/51/51 59/58/58 58/59/59
f 61/60/60 60/61/61 47/49/49
f 63/62/62 62/63/63 26/28/28
f 65/64/64 64/65/65 21/19/19
f 8/7/7 7/8/8 25/25/25
f 1/3/3 8/7/7 64/65/65
f 8/7/7 21/19/19 64/65/65
f 7/8/8 15/15/15 10/10/10
f 66/66/66 20/20/20 25/25/25
f 66/66/66 11/9/9 39/39/39
f 10/10/10 11/9/9 66/66/66
f 11/9/9 67/67/67 39/39/39
f 66/66/66 40/38/38 19/21/21
f 18/18/18 9/11/11 17/16/16
f 37/35/35 38/40/40 67/67/67
f 8/7/7 20/20/20 21/19/19
f 30/29/29 36/36/36 67/67/67
f 30/29/29 68/68/68 36/36/36
f 67/67/67 11/9/9 18/18/18
f 69/69/69 59/58/58 33/33/33
f 69/69/69 34/32/32 57/57/57
f 66/66/66 39/39/39 40/38/38
f 25/25/25 7/8/8 10/10/10
f 54/53/53 55/56/56 70/70/70
f 35/37/37 68/68/68 32/34/34
f 52/50/50 72/71/71 71/72/72
f 12/14/14 13/13/13 72/71/71
f 41/42/42 42/41/41 46/45/45
f 58/59/59 69/69/69 57/57/57
f 20/20/20 66/66/66 19/21/21
f 13/13/13 14/12/12 73/73/73
f 29/30/30 18/18/18 31/31/31
f 74/74/74 73/73/73 14/12/12
f 4/6/6 63/62/62 75/75/75
f 76/76/76 48/48/48 49/47/47
f 71/72/72 13/13/13 73/73/73
f 79/77/77 78/78/78 77/79/79
f 80/80/80 49/47/47 60/61/61
f 56/55/55 61/60/60 44/43/43
f 82/81/81 77/79/79 81/82/82
f 85/83/83 84/84/84 83/85/85
f 78/78/78 84/84/84 86/86/86
f 89/87/87 88/88/88 87/89/89
f 92/90/90 91/91/91 90/92/92
f 95/93/93 94/94/94 93/95/95
f 97/96/96 96/97/97 83/85/85
f 99/98/98 74/74/74 98/99/99
f 100/100/100 77/79/79 86/86/86
f 102/101/101 89/87/87 101/102/102
f 105/103/103 104/104/104 103/105/105
f 108/106/106 107/107/107 106/108/108
f 111/109/109 110/110/110 109/111/111
f 97/96/96 87/89/89 112/112/112
f 114/113/113 102/101/101 113/114/114
f 115/115/115 63/62/62 27/27/27
f 118/116/116 117/117/117 116/118/118
f 119/119/119 115/115/115 27/27/27
f 98/99/99 14/12/12 48/48/48
f 120/120/120 26/28/28 62/63/63
f 28/26/26 120/120/120 106/108/108
f 101/102/102 107/107/107 113/114/114
f 112/112/112 88/88/88 121/121/121
f 121/121/121 96/97/97 112/112/112
f 63/62/62 115/115/115 75/75/75
f 68/68/68 30/29/29 22/24/24
f 48/48/48 122/122/122 98/99/99
f 18/18/18 29/30/30 30/29/29
f 123/123/123 81/82/82 94/94/94
f 100/100/100 93/95/95 81/82/82
f 22/24/24 29/30/30 24/22/22
f 42/41/41 22/24/24 23/23/23
f 91/91/91 95/93/93 124/124/124
f 34/32/32 41/42/42 57/57/57
f 92/90/90 125/125/125 105/103/103
f 121/121/121 104/104/104 125/125/125
f 53/54/54 41/42/42 45/46/46
f 124/124/124 93/95/95 100/100/100
f 68/68/68 34/32/32 32/34/34
f 126/126/126 50/52/52 58/59/59
f 110/110/110 103/105/105 127/127/127
f 111/109/109 128/128/128 117/117/117
f 109/111/111 114/113/113 128/128/128
f 121/121/121 127/127/127 104/104/104
f 34/32/32 69/69/69 33/33/33
f 70/70/70 55/56/56 43/44/44
f 129/129/129 62/63/63 5/5/5
f 50/52/52 51/51/51 58/59/59
f 130/130/130 4/6/6 75/75/75
f 129/129/129 6/4/4 118/116/116
f 53/54/54 70/70/70 126/126/126
f 72/71/71 50/52/52 126/126/126
f 58/59/59 57/57/57 53/54/54
f 5/5/5 63/62/62 4/6/6
f 70/70/70 53/54/54 54/53/53
f 12/14/14 44/43/43 47/49/49
f 131/131/131 76/76/76 80/80/80
f 72/71/71 13/13/13 71/72/72
f 36/36/36 37/35/35 67/67/67
f 50/52/52 72/71/71 52/50/50
f 126/126/126 70/70/70 43/44/44
f 44/43/43 61/60/60 47/49/49
f 43/44/44 12/14/14 72/71/71
f 76/76/76 49/47/47 80/80/80
f 47/49/49 48/48/48 14/12/12
f 77/79/79 82/81/81 79/77/77
f 99/98/98 122/122/122 123/123/123
f 14/12/12 98/99/99 74/74/74
f 122/122/122 48/48/48 76/76/76
f 122/122/122 81/82/82 123/123/123
f 82/81/81 76/76/76 131/131/131
f 86/86/86 77/79/79 78/78/78
f 81/82/82 77/79/79 100/100/100
f 85/83/83 86/86/86 84/84/84
f 132/132/132 90/92/92 124/124/124
f 81/82/82 93/95/95 94/94/94
f 124/124/124 100/100/100 86/86/86
f 85/83/83 83/85/85 96/97/97
f 86/86/86 85/83/83 132/132/132
f 90/92/92 91/91/91 124/124/124
f 125/125/125 90/92/92 132/132/132
f 102/101/101 88/88/88 89/87/87
f 114/113/113 109/111/111 127/127/127
f 125/125/125 104/104/104 105/103/103
f 127/127/127 121/121/121 88/88/88
f 90/92/92 125/125/125 92/90/90
f 132/132/132 85/83/83 96/97/97
f 88/88/88 112/112/112 87/89/89
f 96/97/97 121/121/121 125/125/125
f 113/114/114 102/101/101 101/102/102
f 88/88/88 102/101/101 114/113/113
f 108/106/106 113/114/114 107/107/107
f 133/133/133 116/118/118 128/128/128
f 109/111/111 110/110/110 127/127/127
f 128/128/128 114/113/113 113/114/114
f 108/106/106 106/108/108 120/120/120
f 113/114/114 108/106/106 133/133/133
f 116/118/118 117/117/117 128/128/128
f 129/129/129 116/118/118 133/133/133
f 129/129/129 5/5/5 6/4/4
f 63/62/62 5/5/5 62/63/63
f 116/118/118 129/129/129 118/116/116
f 133/133/133 108/106/106 120/120/120
f 63/62/62 26/28/28 27/27/27
f 120/120/120 62/63/63 129/129/129
f 39/39/39 67/67/67 38/40/40
f 67/67/67 18/18/18 30/29/29
f 9/11/11 10/10/10 16/17/17
f 10/10/10 66/66/66 25/25/25
f 36/36/36 68/68/68 35/37/37
f 34/32/32 68/68/68 22/24/24
f 46/45/45 42/41/41 23/23/23
f 34/32/32 22/24/24 42/41/41
f 69/69/69 58/59/59 59/58/58
f 58/59/59 53/54/54 126/126/126
f 49/47/47 47/49/49 60/61/61
f 47/49/49 14/12/12 12/14/14
f 44/43/43 43/44/44 56/55/55
f 43/44/44 72/71/71 126/126/126
f 98/99/99 122/122/122 99/98/98
f 81/82/82 122/122/122 76/76/76
f 79/77/77 82/81/81 131/131/131
f 81/82/82 76/76/76 82/81/81
f 93/95/95 124/124/124 95/93/93
f 124/124/124 86/86/86 132/132/132
f 104/104/104 127/127/127 103/105/105
f 127/127/127 88/88/88 114/113/113
f 112/112/112 96/97/97 97/96/96
f 96/97/97 125/125/125 132/132/132
f 109/111/111 128/128/128 111/109/109
f 128/128/128 113/114/114 133/133/133
f 26/28/28 120/120/120 28/26/26
f 120/120/120 129/129/129 133/133/133
