# This file uses centimeters as units for non-parametric coordinates.

mtllib lapis.mtl
g default
v 9.706957 2.376643 8.529603
v 9.699435 2.380046 8.526299
v 9.691915 2.376643 8.522994
v 9.688799 2.368428 8.521626
v 9.691915 2.360212 8.522994
v 9.699435 2.356809 8.526299
v 9.706957 2.360212 8.529603
v 9.710073 2.368428 8.530972
v 9.529515 2.376643 8.933492
v 9.514164 2.380046 8.948009
v 9.513361 2.376643 8.929412
v 9.505381 2.368428 8.939118
v 9.509888 2.360212 8.937319
v 9.520911 2.356809 8.932652
v 9.523539 2.360212 8.947096
v 9.524505 2.368428 8.953357
v 9.699435 2.368428 8.526299
v 9.493985 2.370221 8.998400
v 9.492343 2.370965 8.997678
v 9.490701 2.370221 8.996957
v 9.490020 2.368428 8.996657
v 9.490701 2.366634 8.996957
v 9.492343 2.365891 8.997678
v 9.493985 2.366634 8.998400
v 9.494666 2.368428 8.998698
v 9.485453 2.368591 9.013770
v 9.485302 2.368659 9.013704
v 9.485152 2.368591 9.013638
v 9.485090 2.368428 9.013611
v 9.485152 2.368264 9.013638
v 9.485302 2.368196 9.013704
v 9.485453 2.368264 9.013770
v 9.485515 2.368428 9.013798
vt 0.346090 0.014648
vt 0.869165 0.017834
vt 0.655100 0.718773
vt 0.623584 0.716640
vt 0.383508 0.014649
vt 0.664064 0.700809
vt 0.743698 0.347339
vt 0.747779 0.347542
vt 0.739658 0.346728
vt 0.747406 0.310376
vt 0.747779 0.310394
vt 0.753017 0.680472
vt 0.721446 0.337934
vt 0.747037 0.310320
vt 0.420927 0.014649
vt 0.914333 0.036544
vt 0.719496 0.689955
vt 0.697831 0.687302
vt 0.458345 0.014649
vt 0.726540 0.644050
vt 0.728182 0.342541
vt 0.731862 0.344317
vt 0.724700 0.340405
vt 0.745989 0.309937
vt 0.746324 0.310100
vt 0.745670 0.309743
vt 0.901103 0.004605
vt 0.745373 0.309516
vt 0.882393 0.049773
vt 0.668597 0.675019
vt 0.735700 0.345718
vt 0.746676 0.310228
vt 0.891748 0.027189
vt 0.758482 0.797300
vt 0.762404 0.796155
vt 0.754740 0.798939
vt 0.751214 0.801003
vt 0.747914 0.803410
vt 0.744897 0.806166
vt 0.742224 0.809256
vt 0.766424 0.795426
vt 0.439635 0.985352
vt 0.458344 0.942844
vt 0.420925 0.974109
vt 0.402216 0.948507
vt 0.383506 0.966827
vt 0.364797 0.974108
vt 0.346089 0.948656
vt 0.477053 0.983802
vt 0.439636 0.014649
vt 0.914333 0.017835
vt 0.901103 0.049773
vt 0.402217 0.014649
vt 0.869165 0.036544
vt 0.364799 0.014649
vt 0.882395 0.004605
vt 0.477055 0.014649
vt 0.770503 0.795211
vt 0.718457 0.335149
vt 0.745100 0.309262
vt 0.495764 0.948657
vt 0.770503 0.644701
vt 0.495764 0.014649
vn 0.350372 0.923876 0.153922
vn 0.350372 0.923876 0.153922
vn 0.399403 0.888770 0.224867
vn 0.352201 0.922745 0.156515
vn -0.350364 0.923879 -0.153923
vn -0.350364 0.923879 -0.153923
vn -0.353621 0.922747 -0.153268
vn -0.419378 0.897040 -0.139429
vn -0.845868 0.382630 -0.371620
vn -0.845868 0.382630 -0.371620
vn -0.845195 0.415859 -0.335717
vn -0.845889 0.385356 -0.368745
vn -0.845882 -0.382599 -0.371620
vn -0.845882 -0.382599 -0.371620
vn -0.847702 -0.384473 -0.365488
vn -0.850298 -0.387186 -0.356483
vn -0.350379 -0.923872 -0.153936
vn -0.350379 -0.923872 -0.153936
vn -0.349384 -0.924959 -0.149607
vn -0.342972 -0.931344 -0.122351
vn 0.350353 -0.923884 0.153921
vn 0.350353 -0.923884 0.153921
vn 0.305659 -0.936836 0.170035
vn 0.346797 -0.925006 0.155228
vn 0.845856 -0.382656 0.371622
vn 0.845855 -0.382656 0.371622
vn 0.834603 -0.391326 0.387689
vn 0.842976 -0.384920 0.375803
vn 0.845858 0.382659 0.371614
vn 0.845858 0.382659 0.371614
vn 0.844190 0.385370 0.372602
vn 0.792799 0.460743 0.398982
vn 0.402207 -0.000020 -0.915549
vn 0.402190 -0.000010 -0.915556
vn 0.402187 0.000007 -0.915557
vn 0.402204 0.000010 -0.915550
vn 0.402202 0.000039 -0.915551
vn 0.402185 0.000024 -0.915559
vn 0.402167 0.000010 -0.915566
vn 0.402170 0.000005 -0.915565
vn 0.402173 0.000000 -0.915564
vn 0.471967 0.811103 0.345484
vn 0.471887 0.811165 0.345447
vn -0.554853 0.825675 -0.101974
vn -0.554921 0.825626 -0.102000
vn -0.834693 0.501131 -0.228374
vn -0.834712 0.501096 -0.228384
vn -0.877372 -0.417376 -0.236677
vn -0.877370 -0.417380 -0.236674
vn -0.315317 -0.948982 -0.002996
vn -0.315304 -0.948986 -0.002990
vn 0.178368 -0.959822 0.216624
vn 0.178399 -0.959814 0.216637
vn 0.752030 -0.441104 0.489774
vn 0.752039 -0.441090 0.489772
vn 0.686695 0.578426 0.440311
vn 0.686629 0.578524 0.440284
vn 0.299067 0.917171 0.263358
vn 0.299067 0.917171 0.263358
vn -0.396439 0.917083 -0.042365
vn -0.396439 0.917083 -0.042365
vn -0.887781 0.381061 -0.258143
vn -0.887781 0.381061 -0.258143
vn -0.887794 -0.381064 -0.258095
vn -0.887793 -0.381064 -0.258095
vn -0.396440 -0.917085 -0.042316
vn -0.396440 -0.917085 -0.042315
vn 0.299120 -0.917181 0.263261
vn 0.299120 -0.917181 0.263261
vn 0.791384 -0.379011 0.479648
vn 0.791384 -0.379011 0.479648
vn 0.791389 0.379007 0.479643
vn 0.791389 0.379007 0.479643
s 1
g polySurface5 pCylinder4
usemtl initialShadingGroup
f 1/19/1 2/57/2 10/49/3 9/43/4
s 2
f 2/57/5 3/63/6 11/61/7 10/49/8
s 3
f 3/1/9 4/55/10 12/47/11 11/48/12
s 4
f 4/55/13 5/5/14 13/46/15 12/47/16
s 5
f 5/5/17 6/53/18 14/45/19 13/46/20
s 6
f 6/53/21 7/15/22 15/44/23 14/45/24
s 7
f 7/15/25 8/50/26 16/42/27 15/44/28
s 8
f 8/50/29 1/19/30 9/43/31 16/42/32
s 9
f 3/56/33 2/27/34 17/33/35 4/2/36
f 5/54/37 4/2/36 17/33/35 6/29/38
f 7/52/39 6/29/38 17/33/35 8/16/40
f 1/51/41 8/16/40 17/33/35 2/27/34
s 1
f 9/20/4 10/12/3 19/41/42 18/35/43
s 2
f 10/12/8 11/62/7 20/58/44 19/41/45
s 3
f 11/4/12 12/3/11 21/39/46 20/40/47
s 4
f 12/3/16 13/6/15 22/38/48 21/39/49
s 5
f 13/6/20 14/30/19 23/37/50 22/38/51
s 6
f 14/30/24 15/18/23 24/36/52 23/37/53
s 7
f 15/18/28 16/17/27 25/34/54 24/36/55
s 8
f 16/17/32 9/20/31 18/35/56 25/34/57
s 1
f 18/23/43 19/13/42 27/28/58 26/26/59
s 2
f 19/13/45 20/59/44 28/60/60 27/28/61
s 3
f 20/8/47 21/7/46 29/10/62 28/11/63
s 4
f 21/7/49 22/9/48 30/14/64 29/10/65
s 5
f 22/9/51 23/31/50 31/32/66 30/14/67
s 6
f 23/31/53 24/22/52 32/25/68 31/32/69
s 7
f 24/22/55 25/21/54 33/24/70 32/25/71
s 8
f 25/21/57 18/23/56 26/26/72 33/24/73
