# This file uses centimeters as units for non-parametric coordinates.

mtllib Level3.mtl
g default
v -13.500000 4.000000 0.500000
v -0.500006 4.000000 0.500000
v -0.500006 4.000000 -0.500000
v -13.500000 4.000000 -0.500000
v 0.500000 4.000000 0.500000
v -0.500006 4.000000 13.499999
v 0.500000 4.000000 13.499999
v 0.500000 4.000000 -0.500000
v 0.500000 4.000000 -13.500000
v -0.500006 4.000000 -13.500000
v 13.500000 4.000000 0.500000
v 13.500000 4.000000 -0.500000
v -13.500000 0.000000 0.500000
v -0.500003 0.000000 0.500000
v -0.500003 0.000000 -0.500000
v -13.500000 0.000000 -0.500000
v -0.500005 0.000000 13.499999
v 0.500000 0.000000 13.499999
v 0.500000 0.000000 0.500000
v 0.500000 0.000000 -0.500000
v 0.500000 0.000000 -13.500000
v -0.500005 0.000000 -13.500000
v 13.500000 0.000000 0.500000
v 13.500000 0.000000 -0.500000
v -22.500000 4.000000 22.500000
v -13.499998 4.000000 22.500000
v -22.500000 4.000000 13.499998
v -0.500003 4.000000 22.500000
v -22.500000 4.000000 0.500000
v -13.499998 -0.000000 22.500000
v -22.500000 -0.000000 22.500000
v -22.500000 -0.000000 13.499998
v -0.500003 -0.000000 22.500000
v -22.500000 0.000000 0.500000
v 0.500000 4.000000 22.500000
v 13.499998 4.000000 22.500000
v 22.500000 4.000000 22.500000
v 24.500000 4.000000 22.500002
v 13.499998 -0.000000 22.500000
v 0.500000 0.000000 22.500000
v 22.500000 -0.000000 22.500000
v 24.500000 -0.000000 22.500002
v 31.500000 4.000000 22.500004
v 31.500000 4.000000 16.500006
v 24.500000 4.000000 -22.500002
v 31.500000 4.000000 -22.500004
v 31.500000 4.000000 -17.500006
v 31.500000 4.000000 -14.500007
v 31.500000 -0.000000 22.500004
v 31.500000 -0.000000 16.500006
v 24.500000 0.000000 -22.500002
v 31.500000 0.000000 -22.500004
v 31.500000 0.000000 -17.500006
v 31.500000 0.000000 -14.500007
v -22.500000 4.000000 -0.500000
v -22.500000 4.000000 -13.499998
v -22.500000 4.000000 -22.500000
v -13.499998 4.000000 -22.500000
v -0.500003 4.000000 -22.500000
v -22.500000 0.000000 -0.500000
v -22.500000 0.000000 -13.499998
v -22.500000 0.000000 -22.500000
v -13.499998 0.000000 -22.500000
v -0.500003 0.000000 -22.500000
v 0.500000 4.000000 -22.500000
v 0.500000 0.000000 -22.500000
v 15.000000 4.000000 -22.500000
v 22.500000 4.000000 -22.500000
v 15.000000 0.000000 -22.500000
v 22.500000 0.000000 -22.500000
v 9.500001 4.000000 -22.500000
v 9.500001 0.000000 -22.500000
v -22.500000 4.000000 -25.500004
v 9.499996 4.000000 -25.500002
v -22.500000 4.000000 -47.500004
v 22.499996 4.000000 -25.500004
v 22.499996 4.000000 -47.500004
v 9.499992 4.000000 -47.500004
v 14.999996 4.000000 -47.500004
v 14.999998 4.000000 -25.500002
v 9.499996 -0.000000 -25.500002
v -22.500000 -0.000000 -25.500004
v -22.500000 0.000000 -47.500004
v 22.499996 0.000000 -47.500004
v 22.499996 -0.000000 -25.500004
v 9.499992 0.000000 -47.500004
v 14.999996 0.000000 -47.500004
v 14.999998 -0.000000 -25.500002
v 22.500000 -0.000000 -17.500000
v 24.500000 -0.000000 -17.500000
v 22.500000 4.000000 -17.500000
v 24.500000 4.000000 -17.500000
v 22.500000 -0.000000 16.500000
v 24.500000 -0.000000 16.500000
v 22.500000 0.000000 -14.500000
v 24.500000 0.000000 -14.500000
v 22.500000 4.000000 16.500000
v 24.500000 4.000000 16.500000
v 24.500000 4.000000 -14.500000
v 22.500000 4.000000 -14.500000
vt 0.506814 0.141556
vt 0.392372 0.141567
vt 0.392269 0.000055
vt 0.506711 0.000044
vt 0.630060 0.141545
vt 0.515617 0.141555
vt 0.515515 0.000044
vt 0.629957 0.000033
vt 0.277929 0.141578
vt 0.277827 0.000066
vt 0.269126 0.141579
vt 0.269024 0.000067
vt 0.154684 0.141589
vt 0.154581 0.000077
vt 0.867747 0.141523
vt 0.753305 0.141533
vt 0.753203 0.000021
vt 0.867645 0.000011
vt 0.744502 0.141534
vt 0.744399 0.000022
vt 0.040241 0.141600
vt 0.040139 0.000088
vt 0.990993 0.141512
vt 0.982190 0.141513
vt 0.982087 0.000001
vt 0.990891 0.000000
vt 0.354580 0.229589
vt 0.421233 0.229580
vt 0.421234 0.348630
vt 0.354580 0.348639
vt 0.487886 0.229573
vt 0.487887 0.348623
vt 0.258303 0.229600
vt 0.258303 0.348650
vt 0.584163 0.229561
vt 0.584164 0.348612
vt 0.154619 0.229612
vt 0.250897 0.229601
vt 0.250897 0.348651
vt 0.154620 0.348662
vt 0.087966 0.229621
vt 0.087967 0.348671
vt 0.848184 0.838578
vt 0.868267 0.838581
vt 0.868265 1.000000
vt 0.848182 0.999995
vt 0.777893 0.838566
vt 0.777891 0.999984
vt 0.717643 0.838557
vt 0.717642 0.999975
vt 0.255731 0.838488
vt 0.326022 0.838499
vt 0.326021 0.999917
vt 0.255730 0.999905
vt 0.376230 0.838505
vt 0.376229 0.999923
vt 0.406355 0.838508
vt 0.406353 0.999926
vt 0.591569 0.229559
vt 0.687846 0.229549
vt 0.687847 0.348599
vt 0.591570 0.348609
vt 0.754500 0.229541
vt 0.821153 0.229533
vt 0.821154 0.348583
vt 0.754501 0.348590
vt 0.917430 0.229521
vt 0.917431 0.348571
vt 0.924836 0.229520
vt 0.924837 0.348571
vt 0.445649 0.406711
vt 0.503491 0.406681
vt 0.503495 0.530656
vt 0.445653 0.530685
vt 0.991490 0.229512
vt 0.991491 0.348562
vt 0.022306 0.637593
vt 0.260224 0.637625
vt 0.260223 0.757141
vt 0.022305 0.757109
vt 0.423792 0.637649
vt 0.423791 0.757166
vt 0.758365 0.637697
vt 0.921933 0.637722
vt 0.921932 0.757238
vt 0.758363 0.757213
vt 0.661710 0.637683
vt 0.661709 0.757199
vt 0.702603 0.637689
vt 0.702601 0.757206
vt 0.977695 0.637729
vt 0.977694 0.757245
vt 0.185440 0.838475
vt 0.205524 0.838479
vt 0.205522 0.999897
vt 0.185439 0.999893
vt 0.542053 0.406663
vt 0.542056 0.530638
vt 0.000001 0.637589
vt 0.000000 0.757105
vt 1.000000 0.637731
vt 0.999999 0.757248
vt 0.997215 0.592313
vt 0.975173 0.592312
vt 0.975301 0.415151
vt 0.997342 0.415152
vt 0.633524 0.592308
vt 0.633651 0.415147
vt 0.611482 0.592308
vt 0.611609 0.415146
vt 0.386805 0.597884
vt 0.008785 0.597933
vt 0.008713 0.401912
vt 0.386733 0.401862
vn 0.000000 0.000000 1.000000
vn 0.000000 0.000000 1.000000
vn 0.000000 0.000000 1.000000
vn 0.000000 0.000000 1.000000
vn 0.000000 0.000000 -1.000000
vn 0.000000 0.000000 -1.000000
vn 0.000000 0.000000 -1.000000
vn 0.000000 0.000000 -1.000000
vn -1.000000 0.000000 0.000000
vn -1.000000 0.000000 0.000000
vn -1.000000 0.000000 0.000000
vn -1.000000 0.000000 0.000000
vn -1.000000 -0.000001 -0.000000
vn -1.000000 -0.000001 -0.000000
vn -1.000000 -0.000001 -0.000000
vn -1.000000 -0.000001 -0.000000
vn 0.000000 0.000000 1.000000
vn 0.000000 0.000000 1.000000
vn 0.000000 0.000000 1.000000
vn 0.000000 0.000000 1.000000
vn 1.000000 0.000000 0.000000
vn 1.000000 0.000000 0.000000
vn 1.000000 0.000000 0.000000
vn 1.000000 0.000000 0.000000
vn 1.000000 0.000000 0.000000
vn 1.000000 0.000000 0.000000
vn 1.000000 0.000000 0.000000
vn 1.000000 0.000000 0.000000
vn 0.000000 0.000000 -1.000000
vn 0.000000 0.000000 -1.000000
vn 0.000000 0.000000 -1.000000
vn 0.000000 0.000000 -1.000000
vn -1.000000 -0.000001 0.000000
vn -1.000000 -0.000001 0.000000
vn -1.000000 -0.000001 0.000000
vn -1.000000 -0.000001 0.000000
vn 0.000000 0.000000 1.000000
vn 0.000000 0.000000 1.000000
vn 0.000000 0.000000 1.000000
vn 0.000000 0.000000 1.000000
vn 1.000000 0.000000 0.000000
vn 1.000000 0.000000 0.000000
vn 1.000000 0.000000 0.000000
vn 1.000000 0.000000 0.000000
vn 0.000000 0.000000 -1.000000
vn 0.000000 0.000000 -1.000000
vn 0.000000 0.000000 -1.000000
vn 0.000000 0.000000 -1.000000
vn 0.000000 0.000000 -1.000000
vn 0.000000 0.000000 -1.000000
vn 0.000000 0.000000 -1.000000
vn 0.000000 0.000000 -1.000000
vn 1.000000 0.000000 0.000000
vn 1.000000 0.000000 0.000000
vn 1.000000 0.000000 0.000000
vn 1.000000 0.000000 0.000000
vn 0.000000 0.000000 -1.000000
vn 0.000000 0.000000 -1.000000
vn 1.000000 0.000000 0.000000
vn 1.000000 0.000000 0.000000
vn 0.000000 0.000000 -1.000000
vn 0.000000 0.000000 -1.000000
vn 0.000000 0.000000 -1.000000
vn 0.000000 0.000000 -1.000000
vn 0.000000 0.000000 -1.000000
vn 0.000000 0.000000 -1.000000
vn 0.000000 0.000000 -1.000000
vn 0.000000 0.000000 -1.000000
vn 0.000000 0.000000 -1.000000
vn 0.000000 0.000000 -1.000000
vn -1.000000 0.000000 0.000000
vn -1.000000 0.000000 0.000000
vn -1.000000 0.000000 0.000000
vn -1.000000 0.000000 0.000000
vn 0.000000 0.000000 1.000000
vn 0.000000 0.000000 1.000000
vn 0.000000 0.000000 1.000000
vn 0.000000 0.000000 1.000000
vn -1.000000 0.000000 0.000000
vn -1.000000 0.000000 0.000000
vn -1.000000 0.000000 0.000000
vn -1.000000 0.000000 0.000000
vn -1.000000 0.000000 0.000000
vn -1.000000 0.000000 0.000000
vn 1.000000 0.000000 0.000000
vn 1.000000 0.000000 0.000000
vn 1.000000 0.000000 0.000000
vn 1.000000 0.000000 0.000000
vn 0.000000 0.000000 1.000000
vn 0.000000 0.000000 1.000000
vn 0.000000 0.000000 1.000000
vn 0.000000 0.000000 1.000000
vn 0.000000 0.000000 1.000000
vn 0.000000 0.000000 1.000000
vn 1.000000 0.000000 0.000000
vn 1.000000 0.000000 0.000000
vn 0.000000 0.000000 1.000000
vn 0.000000 0.000000 1.000000
vn 0.000000 0.000000 1.000000
vn 0.000000 0.000000 1.000000
vn 0.000000 0.000000 1.000000
vn 0.000000 0.000000 1.000000
vn 0.000000 0.000000 1.000000
vn 0.000000 0.000000 1.000000
vn 0.000000 0.000000 -1.000000
vn 0.000000 0.000000 -1.000000
vn 0.000000 0.000000 -1.000000
vn 0.000000 0.000000 -1.000000
vn 1.000000 0.000000 0.000000
vn 1.000000 0.000000 0.000000
vn 1.000000 0.000000 0.000000
vn 1.000000 0.000000 0.000000
vn -1.000000 0.000000 0.000000
vn -1.000000 0.000000 0.000000
vn -1.000000 0.000000 0.000000
vn -1.000000 0.000000 0.000000
vn 0.000000 0.000000 1.000000
vn 0.000000 0.000000 1.000000
vn 0.000000 0.000000 1.000000
vn 0.000000 0.000000 1.000000
vn 0.000000 0.000000 1.000000
vn 0.000000 0.000000 1.000000
vn -0.000000 0.000000 -1.000000
vn -0.000000 0.000000 -1.000000
vn -0.000000 0.000000 -1.000000
vn -0.000000 0.000000 -1.000000
vn 0.000000 0.000000 1.000000
vn 0.000000 0.000000 1.000000
vn 0.000000 0.000000 1.000000
vn 0.000000 0.000000 1.000000
vn 0.000000 0.000000 1.000000
vn 0.000000 0.000000 1.000000
vn 1.000000 0.000000 0.000000
vn 1.000000 0.000000 0.000000
vn 1.000000 0.000000 0.000000
vn 1.000000 0.000000 0.000000
vn -1.000000 0.000000 0.000000
vn -1.000000 0.000000 0.000000
vn -1.000000 0.000000 0.000000
vn -1.000000 0.000000 0.000000
vn 1.000000 0.000000 -0.000002
vn 1.000000 0.000000 -0.000002
vn 1.000000 0.000000 -0.000002
vn 1.000000 0.000000 -0.000002
vn -1.000000 0.000000 0.000001
vn -1.000000 0.000000 0.000001
vn -1.000000 0.000000 0.000001
vn -1.000000 0.000000 0.000001
vn 0.000000 0.000000 1.000000
vn 0.000000 0.000000 1.000000
vn 0.000000 0.000000 1.000000
vn 0.000000 0.000000 1.000000
vn 1.000000 0.000000 0.000000
vn 1.000000 0.000000 0.000000
vn 1.000000 0.000000 0.000000
vn 1.000000 0.000000 0.000000
vn 0.000000 0.000000 -1.000000
vn 0.000000 0.000000 -1.000000
vn 0.000000 0.000000 -1.000000
vn 0.000000 0.000000 -1.000000
vn -1.000000 0.000000 0.000000
vn -1.000000 0.000000 0.000000
vn -1.000000 0.000000 0.000000
vn -1.000000 0.000000 0.000000
s off
g paredes paredes_e_chao
usemtl lambert3SG
f 13/1/1 14/2/2 2/3/3 1/4/4
f 15/5/5 16/6/6 4/7/7 3/8/8
f 16/6/9 13/1/10 1/4/11 4/7/12
f 14/2/13 17/9/14 6/10/15 2/3/16
f 17/9/17 18/11/18 7/12/19 6/10/20
f 18/11/21 19/13/22 5/14/23 7/12/24
f 20/15/25 21/16/26 9/17/27 8/18/28
f 21/16/29 22/19/30 10/20/31 9/17/32
f 22/19/33 15/5/34 3/8/35 10/20/36
f 19/13/37 23/21/38 11/22/39 5/14/40
f 23/23/41 24/24/42 12/25/43 11/26/44
f 24/24/45 20/15/46 8/18/47 12/25/48
s 1
f 30/27/49 31/28/50 25/29/51 26/30/52
s 2
f 31/28/53 32/31/54 27/32/55 25/29/56
s 1
f 33/33/57 30/27/49 26/30/52 28/34/58
s 2
f 32/31/54 34/35/59 29/36/60 27/32/55
s 1
f 39/37/61 40/38/62 35/39/63 36/40/64
f 41/41/65 39/37/61 36/40/64 37/42/66
f 42/43/67 41/44/65 37/45/66 38/46/68
f 49/47/69 42/43/67 38/46/68 43/48/70
s 3
f 50/49/71 49/47/72 43/48/73 44/50/74
s off
f 51/51/75 52/52/76 46/53/77 45/54/78
s 3
f 52/52/79 53/55/80 47/56/81 46/53/82
f 53/55/80 54/57/83 48/58/84 47/56/81
f 54/57/83 50/49/71 44/50/74 48/58/84
s 2
f 60/59/85 61/60/86 56/61/87 55/62/88
s 6
f 62/63/89 63/64/90 58/65/91 57/66/92
f 63/64/90 64/67/93 59/68/94 58/65/91
s 2
f 61/60/86 62/63/95 57/66/96 56/61/87
s 6
f 64/67/93 66/69/97 65/70/98 59/68/94
s 2
f 34/35/59 60/59/85 55/62/88 29/36/60
s off
f 69/71/99 70/72/100 68/73/101 67/74/102
s 6
f 66/69/97 72/75/103 71/76/104 65/70/98
s 1
f 40/38/62 33/33/57 28/34/58 35/39/63
s off
f 81/77/105 82/78/106 73/79/107 74/80/108
f 82/78/109 83/81/110 75/82/111 73/79/112
f 84/83/113 85/84/114 76/85/115 77/86/116
s 7
f 83/81/117 86/87/118 78/88/119 75/82/120
f 86/87/118 87/89/121 79/90/122 78/88/119
s off
f 85/84/123 88/91/124 80/92/125 76/85/126
s 7
f 87/89/121 84/83/127 77/86/128 79/90/122
s off
f 89/93/129 90/94/130 92/95/131 91/96/132
f 90/94/133 51/51/134 45/54/135 92/95/136
f 70/72/137 89/97/138 91/98/139 68/73/140
f 72/99/141 81/77/142 74/80/143 71/100/144
f 88/91/145 69/101/146 67/102/147 80/92/148
f 93/103/149 94/104/150 98/105/151 97/106/152
f 94/104/153 96/107/154 99/108/155 98/105/156
f 96/107/157 95/109/158 100/110/159 99/108/160
f 95/111/161 93/112/162 97/113/163 100/114/164
g default
v -0.500003 0.000000 0.500000
v -0.500003 0.000000 -0.500000
v -13.500000 0.000000 -0.500000
v -13.500000 0.000000 0.500000
v -0.500005 0.000000 13.499999
v 0.500000 0.000000 13.499999
v 0.500000 0.000000 0.500000
v 0.500000 0.000000 -0.500000
v 0.500000 0.000000 -13.500000
v -0.500005 0.000000 -13.500000
v 13.500000 0.000000 0.500000
v 13.500000 0.000000 -0.500000
v 22.500000 0.000000 -0.500000
v 0.500000 0.000000 -22.500000
v 22.500000 0.000000 -22.500000
v 13.500000 0.000000 -22.500000
v 13.499998 0.000000 -13.499998
v 22.500000 0.000000 -13.499994
v 0.500000 0.000000 -17.500004
v 13.499998 0.000000 -17.500004
v 22.500000 0.000000 -17.500000
v 24.500000 0.000000 -13.499998
v 24.500000 0.000000 -17.500004
v 9.500002 -0.000000 -0.500000
v 9.500002 0.000000 -13.499998
v 9.500002 0.000000 -17.500004
v 9.500001 0.000000 -22.500000
v -22.500000 0.000000 -0.500000
v -22.500000 0.000000 -22.500000
v -0.500003 0.000000 -22.500000
v -13.499998 0.000000 -22.500000
v -22.500000 0.000000 -13.499998
v -13.499998 0.000000 -13.499998
v -22.500000 0.000000 0.500000
v -0.500003 -0.000000 22.500000
v 0.500000 0.000000 22.500000
v 22.500000 0.000000 0.500000
v 22.500000 -0.000000 22.500000
v 13.499998 -0.000000 22.500000
v 13.499998 0.000000 13.499999
v 22.500000 0.000000 13.499999
v 24.500000 -0.000000 22.500002
v 24.500000 0.000000 13.499998
v -22.500000 -0.000000 22.500000
v -13.500000 -0.000000 22.500000
v -22.500000 -0.000000 13.499999
v -13.500000 -0.000000 13.499998
v 31.500000 -0.000000 22.500004
v 24.500000 0.000000 -22.500004
v 31.500000 0.000000 -22.500004
v 31.500000 0.000000 -17.500006
v 31.500000 0.000000 -13.500002
v 31.500000 -0.000000 13.499999
v -22.500000 -0.000000 -25.500004
v 22.499996 -0.000000 -25.500004
v -22.500000 0.000000 -47.500004
v 22.499996 0.000000 -47.500004
v 9.499996 -0.000000 -25.500002
v 9.499992 0.000000 -47.500004
v 14.999998 -0.000000 -25.500002
v 14.999996 0.000000 -47.500004
v -22.500000 0.000000 -17.500004
v -13.499998 0.000000 -17.500004
v -0.500003 0.000000 -17.500004
v 9.500001 0.000000 -22.500000
v 15.000000 0.000000 -22.500000
v 14.999998 -0.000000 -25.500002
v 9.499996 -0.000000 -25.500002
vt 0.166667 0.314286
vt 0.166667 0.328571
vt 0.407407 0.128571
vt 0.425926 0.128571
vt 0.425926 0.514284
vt 0.407407 0.514284
vt 0.666667 0.314286
vt 0.666667 0.328571
vt 0.425926 0.571428
vt 0.592593 0.571428
vt 0.592593 0.642856
vt 0.425926 0.642856
vt 0.666667 0.642856
vt 0.666667 0.571428
vt 0.833333 0.571428
vt 0.833333 0.642856
vt 0.592593 0.328571
vt 0.592593 0.514284
vt 0.833333 0.514284
vt 0.666667 0.514284
vt 0.833333 0.328571
vt 0.870371 0.514284
vt 0.870371 0.571428
vt 0.000000 0.571428
vt 0.166667 0.571428
vt 0.166667 0.642856
vt 0.000000 0.642856
vt 0.407407 0.571428
vt 0.407407 0.642856
vt 0.000000 0.328571
vt 0.166667 0.514284
vt 0.000000 0.514284
vt 0.000000 0.314286
vt 0.407407 0.000000
vt 0.425926 0.000000
vt 0.833333 0.314286
vt 0.666667 0.128571
vt 0.833333 0.128571
vt 0.666667 0.000000
vt 0.833333 0.000000
vt 0.870371 0.000000
vt 0.870371 0.128571
vt 0.000000 0.128571
vt 0.166667 0.128571
vt 0.000000 0.000000
vt 0.166667 0.000000
vt 1.000000 0.571428
vt 1.000000 0.642856
vt 0.870371 0.642856
vt 1.000000 0.514286
vt 1.000000 0.128571
vt 1.000000 0.000000
vt 0.000000 0.685714
vt 0.592593 0.685714
vt 0.592593 1.000000
vt 0.000000 1.000000
vt 0.694445 0.685714
vt 0.694445 1.000000
vt 0.833333 0.685714
vt 0.833333 1.000000
vt 0.592593 0.642856
vt 0.694445 0.642856
vt 0.694445 0.685714
vt 0.592593 0.685714
vt 0.425926 0.328571
vt 0.425926 0.314286
vt 0.407407 0.328571
vt 0.407407 0.314286
vn -0.000000 1.000000 0.000000
vn -0.000000 1.000000 0.000000
vn 0.000000 1.000000 -0.000000
vn 0.000000 1.000000 -0.000000
vn -0.000000 1.000000 -0.000000
vn -0.000000 1.000000 0.000000
vn -0.000000 1.000000 0.000000
vn -0.000000 1.000000 0.000000
vn 0.000000 1.000000 0.000000
vn -0.000000 1.000000 0.000000
vn -0.000000 1.000000 0.000000
vn 0.000000 1.000000 0.000000
vn 0.000000 1.000000 0.000000
vn -0.000000 1.000000 0.000000
vn -0.000000 1.000000 0.000000
vn 0.000000 1.000000 -0.000000
vn 0.000000 1.000000 0.000000
vn 0.000000 1.000000 0.000000
vn 0.000000 1.000000 0.000000
vn 0.000000 1.000000 0.000000
vn 0.000000 1.000000 0.000000
vn 0.000000 1.000000 0.000000
vn 0.000000 1.000000 0.000000
vn 0.000000 1.000000 0.000000
vn -0.000000 1.000000 0.000000
vn 0.000000 1.000000 0.000000
vn 0.000000 1.000000 0.000000
vn -0.000000 1.000000 0.000000
vn 0.000000 1.000000 0.000000
vn 0.000000 1.000000 0.000000
vn -0.000000 1.000000 0.000000
vn 0.000000 1.000000 0.000000
vn 0.000000 1.000000 0.000000
vn -0.000000 1.000000 0.000000
vn -0.000000 1.000000 0.000000
vn 0.000000 1.000000 0.000000
vn 0.000000 1.000000 0.000000
vn 0.000000 1.000000 0.000000
vn 0.000000 1.000000 0.000000
vn -0.000000 1.000000 -0.000000
vn 0.000000 1.000000 0.000000
vn 0.000000 1.000000 0.000000
vn -0.000000 1.000000 0.000000
vn 0.000000 1.000000 0.000000
vn 0.000000 1.000000 0.000000
vn 0.000000 1.000000 0.000000
vn 0.000000 1.000000 0.000000
vn 0.000000 1.000000 0.000000
vn -0.000000 1.000000 0.000000
vn -0.000000 1.000000 0.000000
vn 0.000000 1.000000 0.000000
vn -0.000000 1.000000 0.000000
vn 0.000000 1.000000 -0.000000
vn 0.000000 1.000000 -0.000000
vn 0.000000 1.000000 -0.000000
vn 0.000000 1.000000 0.000000
vn 0.000000 1.000000 0.000000
vn 0.000000 1.000000 0.000000
vn -0.000000 1.000000 0.000000
vn -0.000000 1.000000 0.000000
vn -0.000000 1.000000 0.000000
vn -0.000000 1.000000 0.000000
vn 0.000000 1.000000 0.000000
vn 0.000000 1.000000 0.000000
vn 0.000000 1.000000 0.000000
vn 0.000000 1.000000 0.000000
vn 0.000000 1.000000 0.000000
vn 0.000000 1.000000 -0.000000
vn 0.000000 1.000000 -0.000000
vn 0.000000 1.000000 -0.000000
vn 0.000000 1.000000 -0.000000
s 1
g paredes_e_chao chaos
usemtl lambert4SG
f 119/123/165 126/124/166 127/125/167 114/126/168
f 116/127/169 120/128/170 121/129/171 115/130/172
f 108/179/173 124/131/174 125/132/175 109/119/176
f 118/133/177 117/134/178 112/122/179 113/135/180
f 109/119/176 125/132/175 126/124/166 119/123/165
f 121/129/171 120/128/170 117/134/178 118/133/177
f 121/129/171 118/133/177 122/136/181 123/137/182
f 125/132/175 124/131/174 112/122/179 117/134/178
f 126/124/166 125/132/175 117/134/178 120/128/170
f 127/125/167 126/124/166 120/128/170 116/127/169
f 162/138/183 163/139/184 131/140/185 129/141/186
f 131/140/185 163/139/184 164/142/187 130/143/188
f 128/144/189 103/116/190 133/145/191 132/146/192
f 110/120/193 133/145/191 103/116/190 102/181/194
f 104/115/195 103/116/190 128/144/189 134/147/196
f 106/118/197 105/117/198 135/148/199 136/149/200
f 164/142/187 119/123/201 114/126/202 130/143/188
f 112/122/179 111/121/203 137/150/204 113/135/180
f 106/118/197 140/151/205 111/121/203 107/180/206
f 111/121/203 140/151/205 141/152/207 137/150/204
f 136/149/200 139/153/208 140/151/205 106/118/197
f 141/152/207 140/151/205 139/153/208 138/154/209
f 141/152/207 138/154/209 142/155/210 143/156/211
f 146/157/212 147/158/213 104/115/195 134/147/196
f 104/115/195 147/158/213 105/117/198 101/182/214
f 144/159/215 145/160/216 147/158/213 146/157/212
f 105/117/198 147/158/213 145/160/216 135/148/199
f 123/137/182 151/161/217 150/162/218 149/163/219
f 122/136/181 152/164/220 151/161/217 123/137/182
f 143/156/211 153/165/221 152/164/220 122/136/181
f 142/155/210 148/166/222 153/165/221 143/156/211
s 6
f 154/167/223 158/168/224 159/169/225 156/170/226
f 159/169/225 158/168/224 160/171/227 161/172/228
f 161/172/228 160/171/227 155/173/229 157/174/230
s 1
f 132/146/192 133/145/191 163/139/184 162/138/183
f 164/142/187 163/139/184 133/145/191 110/120/193
f 110/120/193 109/119/231 119/123/201 164/142/187
s off
f 165/175/232 166/176/233 167/177/234 168/178/235
