# This file uses centimeters as units for non-parametric coordinates.

mtllib Level(Meso Collider).mtl
g default
v -44.999996 0.000000 45.000000
v 63.000004 0.000000 45.000000
v 62.999996 0.000000 -95.000008
v -45.000000 0.000000 -95.000008
vt 0.592593 0.642856
vt 0.694445 0.642856
vt 0.694445 0.685714
vt 0.592593 0.685714
vn 0.000000 1.000000 0.000000
vn 0.000000 1.000000 0.000000
vn 0.000000 1.000000 0.000000
vn 0.000000 1.000000 0.000000
s off
g polySurface5 group1
usemtl initialShadingGroup
f 1/1/1 2/2/2 3/3/3 4/4/4
g default
v 45.000000 0.000000 33.000000
v 49.000000 0.000000 33.000000
v 45.000000 0.000000 -29.000000
v 49.000000 0.000000 -29.000000
v 45.000000 8.000000 33.000000
v 49.000000 8.000000 33.000000
v 49.000000 8.000000 -29.000000
v 45.000000 8.000000 -29.000000
vt 0.997215 0.592313
vt 0.975173 0.592312
vt 0.975301 0.415151
vt 0.997342 0.415152
vt 0.633524 0.592308
vt 0.633651 0.415147
vt 0.611482 0.592308
vt 0.611609 0.415146
vt 0.386805 0.597884
vt 0.008785 0.597933
vt 0.008713 0.401912
vt 0.386733 0.401862
vn 0.000000 0.000000 1.000000
vn 0.000000 0.000000 1.000000
vn 0.000000 0.000000 1.000000
vn 0.000000 0.000000 1.000000
vn 1.000000 0.000000 0.000000
vn 1.000000 0.000000 0.000000
vn 1.000000 0.000000 0.000000
vn 1.000000 0.000000 0.000000
vn 0.000000 0.000000 -1.000000
vn 0.000000 0.000000 -1.000000
vn 0.000000 0.000000 -1.000000
vn 0.000000 0.000000 -1.000000
vn -1.000000 0.000000 0.000000
vn -1.000000 0.000000 0.000000
vn -1.000000 0.000000 0.000000
vn -1.000000 0.000000 0.000000
s off
g group1 polySurface10
usemtl initialShadingGroup
f 5/5/5 6/6/6 10/7/7 9/8/8
f 6/6/9 8/9/10 11/10/11 10/7/12
f 8/9/13 7/11/14 12/12/15 11/10/16
f 7/13/17 5/14/18 9/15/19 12/16/20
g default
v -45.000000 8.000000 45.000000
v -45.000000 0.000000 45.000000
v 63.000000 8.000000 45.000008
v 49.000000 8.000000 -45.000004
v 63.000000 8.000000 -45.000008
v 63.000000 0.000000 45.000008
v 49.000000 0.000000 -45.000004
v 63.000000 0.000000 -45.000008
v -45.000000 8.000000 -45.000000
v -45.000000 0.000000 -45.000000
v 30.000000 8.000000 -45.000000
v 45.000000 8.000000 -45.000000
v 30.000000 0.000000 -45.000000
v 45.000000 0.000000 -45.000000
v 19.000002 8.000000 -45.000000
v 19.000002 0.000000 -45.000000
v -45.000000 8.000000 -51.000008
v 18.999992 8.000000 -51.000004
v -45.000000 8.000000 -95.000008
v 44.999989 8.000000 -51.000008
v 44.999989 8.000000 -95.000008
v 29.999994 8.000000 -51.000004
v 18.999992 0.000000 -51.000004
v -45.000000 0.000000 -51.000008
v -45.000000 0.000000 -95.000008
v 44.999989 0.000000 -95.000008
v 44.999989 0.000000 -51.000008
v 29.999994 0.000000 -51.000004
v 45.000000 0.000000 -35.000000
v 49.000000 0.000000 -35.000000
v 45.000000 8.000000 -35.000000
v 49.000000 8.000000 -35.000000
vt 0.754501 0.348590
vt 0.421234 0.348630
vt 0.421233 0.229580
vt 0.754500 0.229541
vt 0.777891 0.999984
vt 0.777893 0.838566
vt 0.255731 0.838488
vt 0.326022 0.838499
vt 0.326021 0.999917
vt 0.255730 0.999905
vt 0.991491 0.348562
vt 0.991490 0.229512
vt 0.445649 0.406711
vt 0.503491 0.406681
vt 0.503495 0.530656
vt 0.445653 0.530685
vt 0.022306 0.637593
vt 0.260224 0.637625
vt 0.260223 0.757141
vt 0.022305 0.757109
vt 0.423792 0.637649
vt 0.423791 0.757166
vt 0.758365 0.637697
vt 0.921933 0.637722
vt 0.921932 0.757238
vt 0.758363 0.757213
vt 0.977695 0.637729
vt 0.977694 0.757245
vt 0.185440 0.838475
vt 0.205524 0.838479
vt 0.205522 0.999897
vt 0.185439 0.999893
vt 0.542053 0.406663
vt 0.542056 0.530638
vt 0.000001 0.637589
vt 0.000000 0.757105
vt 1.000000 0.637731
vt 0.999999 0.757248
vn 1.000000 0.000000 0.000000
vn 1.000000 0.000000 0.000000
vn 1.000000 0.000000 0.000000
vn 1.000000 0.000000 0.000000
vn 0.000000 0.000000 -1.000000
vn 0.000000 0.000000 -1.000000
vn 0.000000 0.000000 -1.000000
vn 0.000000 0.000000 -1.000000
vn 0.000000 0.000000 1.000000
vn 0.000000 0.000000 1.000000
vn 0.000000 0.000000 1.000000
vn 0.000000 0.000000 1.000000
vn -1.000000 0.000000 0.000000
vn -1.000000 0.000000 0.000000
vn -1.000000 0.000000 0.000000
vn -1.000000 0.000000 0.000000
vn 0.000000 0.000000 1.000000
vn 0.000000 0.000000 1.000000
vn 0.000000 0.000000 1.000000
vn 0.000000 0.000000 1.000000
vn 0.000000 0.000000 1.000000
vn 0.000000 0.000000 1.000000
vn 0.000000 0.000000 1.000000
vn 0.000000 0.000000 1.000000
vn 0.000000 0.000000 -1.000000
vn 0.000000 0.000000 -1.000000
vn 0.000000 0.000000 -1.000000
vn 0.000000 0.000000 -1.000000
vn 1.000000 0.000000 0.000000
vn 1.000000 0.000000 0.000000
vn 1.000000 0.000000 0.000000
vn 1.000000 0.000000 0.000000
vn -1.000000 0.000000 0.000000
vn -1.000000 0.000000 0.000000
vn -1.000000 0.000000 0.000000
vn -1.000000 0.000000 0.000000
vn 0.000000 0.000000 1.000000
vn 0.000000 0.000000 1.000000
vn 0.000000 0.000000 1.000000
vn 0.000000 0.000000 1.000000
vn 0.000000 0.000000 -1.000000
vn 0.000000 0.000000 -1.000000
vn 0.000000 0.000000 -1.000000
vn 0.000000 0.000000 -1.000000
vn 0.000000 0.000000 1.000000
vn 0.000000 0.000000 1.000000
vn 0.000000 0.000000 1.000000
vn 0.000000 0.000000 1.000000
vn 1.000000 0.000000 0.000000
vn 1.000000 0.000000 0.000000
vn 1.000000 0.000000 0.000000
vn 1.000000 0.000000 0.000000
vn -1.000000 0.000000 0.000000
vn -1.000000 0.000000 0.000000
vn -1.000000 0.000000 0.000000
vn -1.000000 0.000000 0.000000
vn 1.000000 0.000000 -0.000002
vn 1.000000 0.000000 -0.000002
vn 1.000000 0.000000 -0.000002
vn 1.000000 0.000000 -0.000002
vn -1.000000 0.000000 0.000001
vn -1.000000 0.000000 0.000001
vn -1.000000 0.000000 0.000001
vn -1.000000 0.000000 0.000001
s off
g group1 polySurface9
usemtl initialShadingGroup
f 21/17/21 13/18/22 14/19/23 22/20/24
f 13/18/25 15/21/26 18/22/27 14/19/28
f 19/23/29 20/24/30 17/25/31 16/26/32
f 15/21/33 17/25/34 20/24/35 18/22/36
f 27/27/37 21/17/38 22/20/39 28/28/40
f 25/29/41 26/30/42 24/31/43 23/32/44
f 35/33/45 36/34/46 29/35/47 30/36/48
f 36/34/49 37/37/50 31/38/51 29/35/52
f 38/39/53 39/40/54 32/41/55 33/42/56
f 33/42/57 31/38/58 37/37/59 38/39/60
f 39/40/61 40/43/62 34/44/63 32/41/64
f 41/45/65 42/46/66 44/47/67 43/48/68
f 42/46/69 19/23/70 16/26/71 44/47/72
f 26/30/73 41/49/74 43/50/75 24/31/76
f 28/51/77 35/33/78 30/36/79 27/52/80
f 40/43/81 25/53/82 23/54/83 34/44/84
g default
v -27.000000 8.000000 1.000000
v -1.000012 8.000000 1.000000
v -1.000012 8.000000 -1.000000
v -27.000000 8.000000 -1.000000
v 1.000000 8.000000 1.000000
v -1.000012 8.000000 26.999996
v 1.000000 8.000000 26.999996
v 1.000000 8.000000 -1.000000
v 1.000000 8.000000 -27.000000
v -1.000012 8.000000 -27.000000
v 27.000000 8.000000 1.000000
v 27.000000 8.000000 -1.000000
v -27.000000 0.000000 1.000000
v -1.000006 0.000000 1.000000
v -1.000006 0.000000 -1.000000
v -27.000000 0.000000 -1.000000
v -1.000009 0.000000 26.999996
v 1.000000 0.000000 26.999996
v 1.000000 0.000000 1.000000
v 1.000000 0.000000 -1.000000
v 1.000000 0.000000 -27.000000
v -1.000009 0.000000 -27.000000
v 27.000000 0.000000 1.000000
v 27.000000 0.000000 -1.000000
vt 0.506814 0.141556
vt 0.392372 0.141567
vt 0.392269 0.000055
vt 0.506711 0.000044
vt 0.630060 0.141545
vt 0.515617 0.141555
vt 0.515515 0.000044
vt 0.629957 0.000033
vt 0.277929 0.141578
vt 0.277827 0.000066
vt 0.269126 0.141579
vt 0.269024 0.000067
vt 0.154684 0.141589
vt 0.154581 0.000077
vt 0.867747 0.141523
vt 0.753305 0.141533
vt 0.753203 0.000021
vt 0.867645 0.000011
vt 0.744502 0.141534
vt 0.744399 0.000022
vt 0.040241 0.141600
vt 0.040139 0.000088
vt 0.990993 0.141512
vt 0.982190 0.141513
vt 0.982087 0.000001
vt 0.990891 0.000000
vn 0.000000 0.000000 1.000000
vn 0.000000 0.000000 1.000000
vn 0.000000 0.000000 1.000000
vn 0.000000 0.000000 1.000000
vn 0.000000 0.000000 -1.000000
vn 0.000000 0.000000 -1.000000
vn 0.000000 0.000000 -1.000000
vn 0.000000 0.000000 -1.000000
vn -1.000000 0.000000 0.000000
vn -1.000000 0.000000 0.000000
vn -1.000000 0.000000 0.000000
vn -1.000000 0.000000 0.000000
vn -1.000000 -0.000001 0.000000
vn -1.000000 -0.000001 0.000000
vn -1.000000 -0.000001 0.000000
vn -1.000000 -0.000001 0.000000
vn 0.000000 0.000000 1.000000
vn 0.000000 0.000000 1.000000
vn 0.000000 0.000000 1.000000
vn 0.000000 0.000000 1.000000
vn 1.000000 0.000000 0.000000
vn 1.000000 0.000000 0.000000
vn 1.000000 0.000000 0.000000
vn 1.000000 0.000000 0.000000
vn 1.000000 0.000000 0.000000
vn 1.000000 0.000000 0.000000
vn 1.000000 0.000000 0.000000
vn 1.000000 0.000000 0.000000
vn 0.000000 0.000000 -1.000000
vn 0.000000 0.000000 -1.000000
vn 0.000000 0.000000 -1.000000
vn 0.000000 0.000000 -1.000000
vn -1.000000 -0.000001 0.000000
vn -1.000000 -0.000001 0.000000
vn -1.000000 -0.000001 0.000000
vn -1.000000 -0.000001 0.000000
vn 0.000000 0.000000 1.000000
vn 0.000000 0.000000 1.000000
vn 0.000000 0.000000 1.000000
vn 0.000000 0.000000 1.000000
vn 1.000000 0.000000 0.000000
vn 1.000000 0.000000 0.000000
vn 1.000000 0.000000 0.000000
vn 1.000000 0.000000 0.000000
vn 0.000000 0.000000 -1.000000
vn 0.000000 0.000000 -1.000000
vn 0.000000 0.000000 -1.000000
vn 0.000000 0.000000 -1.000000
s off
g group1 polySurface8
usemtl initialShadingGroup
f 57/55/85 58/56/86 46/57/87 45/58/88
f 59/59/89 60/60/90 48/61/91 47/62/92
f 60/60/93 57/55/94 45/58/95 48/61/96
f 58/56/97 61/63/98 50/64/99 46/57/100
f 61/63/101 62/65/102 51/66/103 50/64/104
f 62/65/105 63/67/106 49/68/107 51/66/108
f 64/69/109 65/70/110 53/71/111 52/72/112
f 65/70/113 66/73/114 54/74/115 53/71/116
f 66/73/117 59/59/118 47/62/119 54/74/120
f 63/67/121 67/75/122 55/76/123 49/68/124
f 67/77/125 68/78/126 56/79/127 55/80/128
f 68/78/129 64/69/130 52/72/131 56/79/132
