# This file uses centimeters as units for non-parametric coordinates.

mtllib lapis.mtl
g default
v 485.347870 118.832146 426.480164
v 484.971771 119.002289 426.314972
v 484.595734 118.832146 426.149689
v 484.439972 118.421402 426.081329
v 484.595734 118.010605 426.149689
v 484.971771 117.840446 426.314972
v 485.347870 118.010605 426.480164
v 485.503693 118.421402 426.548584
v 476.475769 118.832146 446.674591
v 475.708191 119.002289 447.400421
v 475.668060 118.832146 446.470581
v 475.269012 118.421402 446.955933
v 475.494385 118.010605 446.865936
v 476.045563 117.840446 446.632629
v 476.176910 118.010605 447.354767
v 476.225220 118.421402 447.667847
v 484.971771 118.421402 426.314972
v 474.699249 118.511047 449.920013
v 474.617157 118.548248 449.883881
v 474.535034 118.511047 449.847839
v 474.500977 118.421402 449.832855
v 474.535034 118.331688 449.847839
v 474.617157 118.294548 449.883881
v 474.699249 118.331688 449.920013
v 474.733307 118.421402 449.934906
v 474.272614 118.429550 450.688507
v 474.265076 118.432953 450.685211
v 474.257599 118.429550 450.681885
v 474.254486 118.421402 450.680542
v 474.257599 118.413200 450.681885
v 474.265076 118.409798 450.685211
v 474.272614 118.413200 450.688507
v 474.275726 118.421402 450.689880
vt 0.458345 0.014649
vt 0.477055 0.014649
vt 0.477053 0.983802
vt 0.458344 0.942844
vt 0.495764 0.014649
vt 0.495764 0.948657
vt 0.346090 0.014648
vt 0.364799 0.014649
vt 0.364797 0.974108
vt 0.346089 0.948656
vt 0.383508 0.014649
vt 0.383506 0.966827
vt 0.402217 0.014649
vt 0.402216 0.948507
vt 0.420927 0.014649
vt 0.420925 0.974109
vt 0.439636 0.014649
vt 0.439635 0.985352
vt 0.882395 0.004605
vt 0.901103 0.004605
vt 0.891748 0.027189
vt 0.869165 0.017834
vt 0.869165 0.036544
vt 0.882393 0.049773
vt 0.901103 0.049773
vt 0.914333 0.036544
vt 0.914333 0.017835
vt 0.726540 0.644050
vt 0.753017 0.680472
vt 0.766424 0.795426
vt 0.762404 0.796155
vt 0.770503 0.644701
vt 0.770503 0.795211
vt 0.623584 0.716640
vt 0.655100 0.718773
vt 0.744897 0.806166
vt 0.742224 0.809256
vt 0.664064 0.700809
vt 0.747914 0.803410
vt 0.668597 0.675019
vt 0.751214 0.801003
vt 0.697831 0.687302
vt 0.754740 0.798939
vt 0.719496 0.689955
vt 0.758482 0.797300
vt 0.724700 0.340405
vt 0.721446 0.337934
vt 0.745373 0.309516
vt 0.745670 0.309743
vt 0.718457 0.335149
vt 0.745100 0.309262
vt 0.747779 0.347542
vt 0.743698 0.347339
vt 0.747406 0.310376
vt 0.747779 0.310394
vt 0.739658 0.346728
vt 0.747037 0.310320
vt 0.735700 0.345718
vt 0.746676 0.310228
vt 0.731862 0.344317
vt 0.746324 0.310100
vt 0.728182 0.342541
vt 0.745989 0.309937
vn 0.350372 0.923876 0.153922
vn 0.350372 0.923876 0.153922
vn 0.399403 0.888770 0.224867
vn 0.352201 0.922745 0.156515
vn -0.350364 0.923879 -0.153923
vn -0.350364 0.923879 -0.153923
vn -0.353621 0.922747 -0.153268
vn -0.419378 0.897040 -0.139429
vn -0.845868 0.382630 -0.371620
vn -0.845868 0.382630 -0.371620
vn -0.845195 0.415859 -0.335717
vn -0.845889 0.385356 -0.368745
vn -0.845882 -0.382599 -0.371620
vn -0.845882 -0.382599 -0.371620
vn -0.847702 -0.384473 -0.365488
vn -0.850298 -0.387186 -0.356483
vn -0.350379 -0.923872 -0.153936
vn -0.350379 -0.923872 -0.153936
vn -0.349384 -0.924959 -0.149607
vn -0.342972 -0.931343 -0.122351
vn 0.350353 -0.923884 0.153921
vn 0.350353 -0.923884 0.153921
vn 0.305659 -0.936836 0.170035
vn 0.346797 -0.925006 0.155228
vn 0.845856 -0.382656 0.371622
vn 0.845855 -0.382656 0.371622
vn 0.834603 -0.391326 0.387689
vn 0.842976 -0.384920 0.375803
vn 0.845858 0.382659 0.371614
vn 0.845858 0.382659 0.371614
vn 0.844190 0.385370 0.372602
vn 0.792799 0.460743 0.398982
vn 0.402207 -0.000020 -0.915549
vn 0.402190 -0.000010 -0.915556
vn 0.402187 0.000007 -0.915557
vn 0.402204 0.000010 -0.915550
vn 0.402202 0.000039 -0.915551
vn 0.402204 0.000010 -0.915550
vn 0.402187 0.000007 -0.915557
vn 0.402185 0.000024 -0.915559
vn 0.402167 0.000010 -0.915566
vn 0.402185 0.000024 -0.915559
vn 0.402187 0.000007 -0.915557
vn 0.402170 0.000005 -0.915565
vn 0.402173 0.000000 -0.915564
vn 0.402170 0.000005 -0.915565
vn 0.402187 0.000007 -0.915557
vn 0.402190 -0.000010 -0.915556
vn 0.352201 0.922745 0.156515
vn 0.399403 0.888770 0.224867
vn 0.471967 0.811103 0.345484
vn 0.471887 0.811165 0.345447
vn -0.419378 0.897040 -0.139429
vn -0.353621 0.922747 -0.153268
vn -0.554853 0.825675 -0.101974
vn -0.554921 0.825626 -0.102000
vn -0.845889 0.385356 -0.368745
vn -0.845195 0.415859 -0.335717
vn -0.834693 0.501131 -0.228374
vn -0.834712 0.501096 -0.228384
vn -0.850298 -0.387186 -0.356483
vn -0.847702 -0.384473 -0.365488
vn -0.877372 -0.417376 -0.236677
vn -0.877371 -0.417380 -0.236674
vn -0.342972 -0.931343 -0.122351
vn -0.349384 -0.924959 -0.149607
vn -0.315317 -0.948982 -0.002996
vn -0.315304 -0.948986 -0.002990
vn 0.346797 -0.925006 0.155228
vn 0.305659 -0.936836 0.170035
vn 0.178368 -0.959822 0.216624
vn 0.178399 -0.959814 0.216637
vn 0.842976 -0.384920 0.375803
vn 0.834603 -0.391326 0.387689
vn 0.752030 -0.441104 0.489774
vn 0.752039 -0.441090 0.489772
vn 0.792799 0.460743 0.398982
vn 0.844190 0.385370 0.372602
vn 0.686695 0.578426 0.440311
vn 0.686629 0.578524 0.440284
vn 0.471887 0.811165 0.345447
vn 0.471967 0.811103 0.345484
vn 0.299067 0.917171 0.263358
vn 0.299067 0.917171 0.263358
vn -0.554921 0.825626 -0.102000
vn -0.554853 0.825675 -0.101974
vn -0.396439 0.917083 -0.042365
vn -0.396439 0.917083 -0.042365
vn -0.834712 0.501096 -0.228384
vn -0.834693 0.501131 -0.228374
vn -0.887781 0.381061 -0.258143
vn -0.887781 0.381061 -0.258143
vn -0.877371 -0.417380 -0.236674
vn -0.877372 -0.417376 -0.236677
vn -0.887794 -0.381064 -0.258095
vn -0.887793 -0.381064 -0.258095
vn -0.315304 -0.948986 -0.002990
vn -0.315317 -0.948982 -0.002996
vn -0.396440 -0.917085 -0.042316
vn -0.396440 -0.917085 -0.042315
vn 0.178399 -0.959814 0.216637
vn 0.178368 -0.959822 0.216624
vn 0.299120 -0.917181 0.263261
vn 0.299120 -0.917181 0.263261
vn 0.752039 -0.441090 0.489772
vn 0.752030 -0.441104 0.489774
vn 0.791384 -0.379011 0.479648
vn 0.791384 -0.379011 0.479648
vn 0.686629 0.578524 0.440284
vn 0.686695 0.578426 0.440311
vn 0.791389 0.379007 0.479643
vn 0.791389 0.379007 0.479643
s off
g lapis:polySurface5pCylinder4
usemtl lapis:initialShadingGroup
f 1/1/1 2/2/2 10/3/3 9/4/4
f 2/2/5 3/5/6 11/6/7 10/3/8
f 3/7/9 4/8/10 12/9/11 11/10/12
f 4/8/13 5/11/14 13/12/15 12/9/16
f 5/11/17 6/13/18 14/14/19 13/12/20
f 6/13/21 7/15/22 15/16/23 14/14/24
f 7/15/25 8/17/26 16/18/27 15/16/28
f 8/17/29 1/1/30 9/4/31 16/18/32
f 3/19/33 2/20/34 17/21/35 4/22/36
f 5/23/37 4/22/38 17/21/39 6/24/40
f 7/25/41 6/24/42 17/21/43 8/26/44
f 1/27/45 8/26/46 17/21/47 2/20/48
f 9/28/49 10/29/50 19/30/51 18/31/52
f 10/29/53 11/32/54 20/33/55 19/30/56
f 11/34/57 12/35/58 21/36/59 20/37/60
f 12/35/61 13/38/62 22/39/63 21/36/64
f 13/38/65 14/40/66 23/41/67 22/39/68
f 14/40/69 15/42/70 24/43/71 23/41/72
f 15/42/73 16/44/74 25/45/75 24/43/76
f 16/44/77 9/28/78 18/31/79 25/45/80
f 18/46/81 19/47/82 27/48/83 26/49/84
f 19/47/85 20/50/86 28/51/87 27/48/88
f 20/52/89 21/53/90 29/54/91 28/55/92
f 21/53/93 22/56/94 30/57/95 29/54/96
f 22/56/97 23/58/98 31/59/99 30/57/100
f 23/58/101 24/60/102 32/61/103 31/59/104
f 24/60/105 25/62/106 33/63/107 32/61/108
f 25/62/109 18/46/110 26/49/111 33/63/112
