# This file uses centimeters as units for non-parametric coordinates.

mtllib papel.mtl
g default
v 12.263566 2.357362 8.790632
v 13.110111 2.357362 9.322949
v 12.994564 2.357362 7.628123
v 13.841109 2.357362 8.160440
vt 0.171601 0.096457
vt 0.759281 0.096517
vt 0.759199 0.903542
vt 0.171518 0.903483
vn 0.000000 1.000000 -0.000000
vn 0.000000 1.000000 -0.000000
vn 0.000000 1.000000 -0.000000
vn 0.000000 1.000000 -0.000000
s off
g polySurface10 pCylinder4
usemtl initialShadingGroup
f 1/1/1 2/2/2 4/3/3 3/4/4
